<svg width="32" height="32" viewBox="0 0 32 32" fill="none" xmlns="http://www.w3.org/2000/svg">
<g clip-path="url(#clip0_80_6)">
<path d="M30.1166 5.86058C29.8514 5.53143 29.5589 5.22058 29.2389 4.93715C27.1909 3.09943 24.4206 2.95315 20.096 2.92572H18.9257C18.1669 2.92572 17.5543 3.53829 17.5543 4.29715V14.72C17.5543 15.4789 16.9417 16.0914 16.1829 16.0914H4.29715C3.53829 16.0914 2.92572 16.7131 2.92572 17.4629C2.92572 23.488 2.92572 27.1177 5.22972 29.5406C7.56115 32 10.8709 32 17.4629 32H18.1211C24.0366 32 26.9989 32 29.2389 29.9886C29.5497 29.7051 29.8514 29.3943 30.1166 29.0651C32 26.7429 32 23.6434 32 17.4629C32 11.2823 32 8.18286 30.1166 5.86058ZM21.8514 24.6857H13.0743C12.3154 24.6857 11.7029 24.0731 11.7029 23.3143C11.7029 22.5554 12.3154 21.9429 13.0743 21.9429H21.8514C22.6103 21.9429 23.2229 22.5554 23.2229 23.3143C23.2229 24.0731 22.6103 24.6857 21.8514 24.6857Z" fill="black"/>
<path d="M5.76 14.4457C5.00114 14.4457 4.38857 13.8331 4.38857 13.0743V1.37143C4.38857 0.612571 5.00114 0 5.76 0C6.51886 0 7.13143 0.612571 7.13143 1.37143V13.0743C7.13143 13.8331 6.51886 14.4457 5.76 14.4457ZM10.1486 11.52C9.38971 11.52 8.77714 10.9074 8.77714 10.1486V4.29714C8.77714 3.53829 9.38971 2.92571 10.1486 2.92571C10.9074 2.92571 11.52 3.53829 11.52 4.29714V10.1486C11.52 10.9074 10.9074 11.52 10.1486 11.52ZM14.5371 10.0571C13.7783 10.0571 13.1657 9.44457 13.1657 8.68571V5.76C13.1657 5.00114 13.7783 4.38857 14.5371 4.38857C15.296 4.38857 15.9086 5.00114 15.9086 5.76V8.68571C15.9086 9.44457 15.296 10.0571 14.5371 10.0571ZM1.37143 10.0571C0.612571 10.0571 0 9.44457 0 8.68571V5.76C0 5.00114 0.612571 4.38857 1.37143 4.38857C2.13029 4.38857 2.74286 5.00114 2.74286 5.76V8.68571C2.74286 9.44457 2.13029 10.0571 1.37143 10.0571Z" fill="black"/>
</g>
<defs>
<clipPath id="clip0_80_6">
<rect width="32" height="32" fill="white"/>
</clipPath>
</defs>
</svg>
