<svg width="32" height="23" viewBox="0 0 32 23" fill="none" xmlns="http://www.w3.org/2000/svg">
<path d="M30.5282 15.4616C30.6582 14.7566 30.6582 14.0365 30.5282 13.3314L31.8184 12.5863C31.9684 12.5013 32.0334 12.3263 31.9834 12.1613C31.6483 11.0812 31.0733 10.1011 30.3232 9.29098C30.2082 9.16597 30.0232 9.13596 29.8732 9.22097L28.583 9.96605C28.038 9.501 27.4129 9.14096 26.7378 8.90094V7.41078C26.7378 7.24076 26.6178 7.09075 26.4528 7.05574C25.3377 6.80572 24.2026 6.81572 23.1424 7.05574C22.9774 7.09075 22.8574 7.24076 22.8574 7.41078V8.90094C22.1823 9.14096 21.5573 9.501 21.0122 9.96605L19.7221 9.22097C19.5771 9.13596 19.387 9.16597 19.272 9.29098C18.522 10.1011 17.9469 11.0812 17.6119 12.1613C17.5619 12.3263 17.6319 12.5013 17.7769 12.5863L19.067 13.3314C18.937 14.0365 18.937 14.7566 19.067 15.4616L17.7769 16.2067C17.6269 16.2917 17.5619 16.4667 17.6119 16.6318C17.9469 17.7119 18.522 18.687 19.272 19.5021C19.387 19.6271 19.5721 19.6571 19.7221 19.5721L21.0122 18.827C21.5573 19.292 22.1823 19.6521 22.8574 19.8921V21.3823C22.8574 21.5523 22.9774 21.7023 23.1424 21.7373C24.2576 21.9873 25.3927 21.9773 26.4528 21.7373C26.6178 21.7023 26.7378 21.5523 26.7378 21.3823V19.8921C27.4129 19.6521 28.038 19.292 28.583 18.827L29.8732 19.5721C30.0182 19.6571 30.2082 19.6271 30.3232 19.5021C31.0733 18.692 31.6483 17.7119 31.9834 16.6318C32.0334 16.4667 31.9634 16.2917 31.8184 16.2067L30.5282 15.4616ZM24.8026 16.8218C23.4625 16.8218 22.3774 15.7317 22.3774 14.3965C22.3774 13.0614 23.4675 11.9713 24.8026 11.9713C26.1378 11.9713 27.2279 13.0614 27.2279 14.3965C27.2279 15.7317 26.1428 16.8218 24.8026 16.8218ZM4.80051 9.59601C6.56569 9.59601 8.00084 8.16086 8.00084 6.39567C8.00084 4.63049 6.56569 3.19534 4.80051 3.19534C3.03532 3.19534 1.60017 4.63049 1.60017 6.39567C1.60017 8.16086 3.03532 9.59601 4.80051 9.59601ZM16.0017 11.1962C16.0967 11.1962 16.1867 11.1712 16.2817 11.1662C16.6968 10.0811 17.3068 9.06096 18.0969 8.20587C18.4669 7.80582 18.992 7.5758 19.5421 7.5758C19.8871 7.5758 20.2271 7.66581 20.5222 7.84083L20.9172 8.07085C20.9572 8.04585 20.9972 8.02585 21.0372 8.00084C21.3873 7.27077 21.5973 6.46068 21.5973 5.60059C21.5973 2.50526 19.092 0 15.9967 0C12.9014 0 10.4011 2.50026 10.4011 5.59559C10.4011 8.69092 12.9064 11.1962 16.0017 11.1962ZM21.2622 20.9222C21.1472 20.8622 21.0322 20.7922 20.9222 20.7272C20.5122 20.9672 20.1571 21.2172 19.5471 21.2172C19.002 21.2172 18.4769 20.9872 18.1019 20.5872C17.1868 19.5971 16.4867 18.3919 16.0917 17.1068C15.5566 15.3816 17.3368 14.6215 17.3818 14.5915C17.3768 14.4615 17.3768 14.3315 17.3818 14.2015L16.9868 13.9715C16.7968 13.8615 16.6368 13.7214 16.4967 13.5664C16.3317 13.5764 16.1717 13.5964 16.0067 13.5964C14.7766 13.5964 13.6264 13.2964 12.5813 12.7963H12.1663C8.98095 12.7963 6.40068 15.3766 6.40068 18.557V19.9971C6.40068 21.3222 7.47579 22.3974 8.80093 22.3974H21.5723C21.3873 22.0973 21.2622 21.7573 21.2622 21.3823V20.9222ZM8.65591 12.1263C8.07585 11.5512 7.28077 11.1962 6.40068 11.1962H3.20034C1.43515 11.1962 0 12.6313 0 14.3965V15.9967C0 16.8818 0.715075 17.5969 1.60017 17.5969H4.89552C5.21055 15.2266 6.6407 13.2314 8.65591 12.1263Z" fill="black"/>
</svg>
