<svg id="Layer_1" data-name="Layer 1" xmlns="http://www.w3.org/2000/svg" xmlns:xlink="http://www.w3.org/1999/xlink" viewBox="0 0 1536 540"><defs><style>.cls-1,.cls-8,.cls-9{fill:none;}.cls-2{clip-path:url(#clip-path);}.cls-3{fill:#f9f9f9;}.cls-4,.cls-5{opacity:0.5;}.cls-10,.cls-11,.cls-12,.cls-6,.cls-7,.cls-8,.cls-9{opacity:0.25;}.cls-10,.cls-11,.cls-8,.cls-9{stroke:#000;}.cls-10,.cls-8,.cls-9{stroke-linecap:round;}.cls-10,.cls-11,.cls-8{stroke-linejoin:round;stroke-width:6.4px;}.cls-9{stroke-miterlimit:10;stroke-width:128px;}.cls-12{fill:#231f20;}</style><clipPath id="clip-path"><rect class="cls-1" width="1536" height="540"/></clipPath></defs><g class="cls-2"><rect class="cls-3" y="-226.31" width="1536" height="800.13"/><g class="cls-4"><circle class="cls-5" cx="21.61" cy="375.08" r="2.56"/><circle class="cls-5" cx="21.61" cy="415.34" r="2.56"/><circle class="cls-5" cx="21.61" cy="455.6" r="2.56"/><circle class="cls-5" cx="21.61" cy="495.86" r="2.56"/><circle class="cls-5" cx="21.61" cy="536.13" r="2.56"/><circle class="cls-5" cx="61.35" cy="375.08" r="2.56"/><circle class="cls-5" cx="61.35" cy="415.34" r="2.56"/><circle class="cls-5" cx="61.35" cy="455.6" r="2.56"/><circle class="cls-5" cx="61.35" cy="495.86" r="2.56"/><circle class="cls-5" cx="61.35" cy="536.13" r="2.56"/><circle class="cls-5" cx="101.09" cy="375.08" r="2.56"/><circle class="cls-5" cx="101.09" cy="415.34" r="2.56"/><circle class="cls-5" cx="101.09" cy="455.6" r="2.56"/><circle class="cls-5" cx="101.09" cy="495.86" r="2.56"/><circle class="cls-5" cx="101.09" cy="536.13" r="2.56"/><circle class="cls-5" cx="140.84" cy="375.08" r="2.56"/><circle class="cls-5" cx="140.84" cy="415.34" r="2.56"/><circle class="cls-5" cx="140.84" cy="455.6" r="2.56"/><circle class="cls-5" cx="140.84" cy="495.86" r="2.56"/><circle class="cls-5" cx="140.84" cy="536.13" r="2.56"/><circle class="cls-5" cx="180.58" cy="375.08" r="2.56"/><circle class="cls-5" cx="180.58" cy="415.34" r="2.56"/><circle class="cls-5" cx="180.58" cy="455.6" r="2.56"/><circle class="cls-5" cx="180.58" cy="495.86" r="2.56"/><circle class="cls-5" cx="180.58" cy="536.13" r="2.56"/><circle class="cls-5" cx="220.32" cy="375.08" r="2.56"/><circle class="cls-5" cx="220.32" cy="415.34" r="2.56"/><circle class="cls-5" cx="220.32" cy="455.6" r="2.56"/><circle class="cls-5" cx="220.32" cy="495.86" r="2.56"/><circle class="cls-5" cx="220.32" cy="536.13" r="2.56"/><circle class="cls-5" cx="260.07" cy="375.08" r="2.56"/><circle class="cls-5" cx="260.07" cy="415.34" r="2.56"/><circle class="cls-5" cx="260.07" cy="455.6" r="2.56"/><circle class="cls-5" cx="260.07" cy="495.86" r="2.56"/><circle class="cls-5" cx="260.07" cy="536.13" r="2.56"/><circle class="cls-5" cx="299.81" cy="375.08" r="2.56"/><circle class="cls-5" cx="299.81" cy="415.34" r="2.56"/><circle class="cls-5" cx="299.81" cy="455.6" r="2.56"/><circle class="cls-5" cx="299.81" cy="495.86" r="2.56"/><circle class="cls-5" cx="299.81" cy="536.13" r="2.56"/><circle class="cls-5" cx="339.55" cy="375.08" r="2.56"/><circle class="cls-5" cx="339.55" cy="415.34" r="2.56"/><circle class="cls-5" cx="339.55" cy="455.6" r="2.56"/><circle class="cls-5" cx="339.55" cy="495.86" r="2.56"/><circle class="cls-5" cx="339.55" cy="536.13" r="2.56"/><circle class="cls-5" cx="379.3" cy="375.08" r="2.56"/><circle class="cls-5" cx="379.3" cy="415.34" r="2.56"/><circle class="cls-5" cx="379.3" cy="455.6" r="2.56"/><circle class="cls-5" cx="379.3" cy="495.86" r="2.56"/><circle class="cls-5" cx="379.3" cy="536.13" r="2.56"/><circle class="cls-5" cx="419.04" cy="375.08" r="2.56"/><circle class="cls-5" cx="419.04" cy="415.34" r="2.56"/><circle class="cls-5" cx="419.04" cy="455.6" r="2.56"/><circle class="cls-5" cx="419.04" cy="495.86" r="2.56"/><circle class="cls-5" cx="419.04" cy="536.13" r="2.56"/><circle class="cls-5" cx="458.78" cy="375.08" r="2.56"/><circle class="cls-5" cx="458.78" cy="415.34" r="2.56"/><circle class="cls-5" cx="458.78" cy="455.6" r="2.56"/><circle class="cls-5" cx="458.78" cy="495.86" r="2.56"/><circle class="cls-5" cx="458.78" cy="536.13" r="2.56"/><circle class="cls-5" cx="498.53" cy="375.08" r="2.56"/><circle class="cls-5" cx="498.53" cy="415.34" r="2.56"/><circle class="cls-5" cx="498.53" cy="455.6" r="2.56"/><circle class="cls-5" cx="498.53" cy="495.86" r="2.56"/><circle class="cls-5" cx="498.53" cy="536.13" r="2.56"/><circle class="cls-5" cx="538.27" cy="375.08" r="2.56"/><circle class="cls-5" cx="538.27" cy="415.34" r="2.56"/><circle class="cls-5" cx="538.27" cy="455.6" r="2.56"/><circle class="cls-5" cx="538.27" cy="495.86" r="2.56"/><circle class="cls-5" cx="538.27" cy="536.13" r="2.56"/><circle class="cls-5" cx="578.01" cy="375.08" r="2.56"/><circle class="cls-5" cx="578.01" cy="415.34" r="2.56"/><circle class="cls-5" cx="578.01" cy="455.6" r="2.56"/><circle class="cls-5" cx="578.01" cy="495.86" r="2.56"/><circle class="cls-5" cx="578.01" cy="536.13" r="2.56"/><circle class="cls-5" cx="617.76" cy="375.08" r="2.56"/><circle class="cls-5" cx="617.76" cy="415.34" r="2.56"/><circle class="cls-5" cx="617.76" cy="455.6" r="2.56"/><circle class="cls-5" cx="617.76" cy="495.86" r="2.56"/><circle class="cls-5" cx="617.76" cy="536.13" r="2.56"/><circle class="cls-5" cx="657.5" cy="375.08" r="2.56"/><circle class="cls-5" cx="657.5" cy="415.34" r="2.56"/><circle class="cls-5" cx="657.5" cy="455.6" r="2.56"/><circle class="cls-5" cx="657.5" cy="495.86" r="2.56"/><circle class="cls-5" cx="657.5" cy="536.13" r="2.56"/><circle class="cls-5" cx="697.24" cy="375.08" r="2.56"/><circle class="cls-5" cx="697.24" cy="415.34" r="2.56"/><circle class="cls-5" cx="697.24" cy="455.6" r="2.56"/><circle class="cls-5" cx="697.24" cy="495.86" r="2.56"/><circle class="cls-5" cx="697.24" cy="536.13" r="2.56"/><circle class="cls-5" cx="736.99" cy="375.08" r="2.56"/><circle class="cls-5" cx="736.99" cy="415.34" r="2.56"/><circle class="cls-5" cx="736.99" cy="455.6" r="2.56"/><circle class="cls-5" cx="736.99" cy="495.86" r="2.56"/><circle class="cls-5" cx="736.99" cy="536.13" r="2.56"/><circle class="cls-5" cx="776.73" cy="375.08" r="2.56"/><circle class="cls-5" cx="776.73" cy="415.34" r="2.56"/><circle class="cls-5" cx="776.73" cy="455.6" r="2.56"/><circle class="cls-5" cx="776.73" cy="495.86" r="2.56"/><circle class="cls-5" cx="776.73" cy="536.13" r="2.56"/><circle class="cls-5" cx="816.47" cy="375.08" r="2.56"/><circle class="cls-5" cx="816.47" cy="415.34" r="2.56"/><circle class="cls-5" cx="816.47" cy="455.6" r="2.56"/><circle class="cls-5" cx="816.47" cy="495.86" r="2.56"/><circle class="cls-5" cx="816.47" cy="536.13" r="2.56"/><circle class="cls-5" cx="856.22" cy="375.08" r="2.56"/><circle class="cls-5" cx="856.22" cy="415.34" r="2.56"/><circle class="cls-5" cx="856.22" cy="455.6" r="2.56"/><circle class="cls-5" cx="856.22" cy="495.86" r="2.56"/><circle class="cls-5" cx="856.22" cy="536.13" r="2.56"/><circle class="cls-5" cx="895.96" cy="375.08" r="2.56"/><circle class="cls-5" cx="895.96" cy="415.34" r="2.56"/><circle class="cls-5" cx="895.96" cy="455.6" r="2.56"/><circle class="cls-5" cx="895.96" cy="495.86" r="2.56"/><circle class="cls-5" cx="895.96" cy="536.13" r="2.56"/><circle class="cls-5" cx="935.7" cy="375.08" r="2.56"/><circle class="cls-5" cx="935.7" cy="415.34" r="2.56"/><circle class="cls-5" cx="935.7" cy="455.6" r="2.56"/><circle class="cls-5" cx="935.7" cy="495.86" r="2.56"/><circle class="cls-5" cx="935.7" cy="536.13" r="2.56"/><circle class="cls-5" cx="975.45" cy="375.08" r="2.56"/><circle class="cls-5" cx="975.45" cy="415.34" r="2.56"/><circle class="cls-5" cx="975.45" cy="455.6" r="2.56"/><circle class="cls-5" cx="975.45" cy="495.86" r="2.56"/><circle class="cls-5" cx="975.45" cy="536.13" r="2.56"/><circle class="cls-5" cx="1015.19" cy="375.08" r="2.56"/><circle class="cls-5" cx="1015.19" cy="415.34" r="2.56"/><circle class="cls-5" cx="1015.19" cy="455.6" r="2.56"/><circle class="cls-5" cx="1015.19" cy="495.86" r="2.56"/><circle class="cls-5" cx="1015.19" cy="536.13" r="2.56"/><circle class="cls-5" cx="1054.94" cy="375.08" r="2.56"/><circle class="cls-5" cx="1054.94" cy="415.34" r="2.56"/><circle class="cls-5" cx="1054.94" cy="455.6" r="2.56"/><circle class="cls-5" cx="1054.94" cy="495.86" r="2.56"/><circle class="cls-5" cx="1054.94" cy="536.13" r="2.56"/><circle class="cls-5" cx="1094.68" cy="375.08" r="2.56"/><circle class="cls-5" cx="1094.68" cy="415.34" r="2.56"/><circle class="cls-5" cx="1094.68" cy="455.6" r="2.56"/><circle class="cls-5" cx="1094.68" cy="495.86" r="2.56"/><circle class="cls-5" cx="1094.68" cy="536.13" r="2.56"/><circle class="cls-5" cx="1134.42" cy="375.08" r="2.56"/><circle class="cls-5" cx="1134.42" cy="415.34" r="2.56"/><circle class="cls-5" cx="1134.42" cy="455.6" r="2.56"/><circle class="cls-5" cx="1134.42" cy="495.86" r="2.56"/><circle class="cls-5" cx="1134.42" cy="536.13" r="2.56"/><circle class="cls-5" cx="1174.17" cy="375.08" r="2.56"/><circle class="cls-5" cx="1174.17" cy="415.34" r="2.56"/><circle class="cls-5" cx="1174.17" cy="455.6" r="2.56"/><circle class="cls-5" cx="1174.17" cy="495.86" r="2.56"/><circle class="cls-5" cx="1174.17" cy="536.13" r="2.56"/><circle class="cls-5" cx="1213.91" cy="375.08" r="2.56"/><circle class="cls-5" cx="1213.91" cy="415.34" r="2.56"/><circle class="cls-5" cx="1213.91" cy="455.6" r="2.56"/><circle class="cls-5" cx="1213.91" cy="495.86" r="2.56"/><circle class="cls-5" cx="1213.91" cy="536.13" r="2.56"/><circle class="cls-5" cx="1253.65" cy="375.08" r="2.56"/><circle class="cls-5" cx="1253.65" cy="415.34" r="2.56"/><circle class="cls-5" cx="1253.65" cy="455.6" r="2.56"/><circle class="cls-5" cx="1253.65" cy="495.86" r="2.56"/><circle class="cls-5" cx="1253.65" cy="536.13" r="2.56"/><circle class="cls-5" cx="1293.4" cy="375.08" r="2.56"/><circle class="cls-5" cx="1293.4" cy="415.34" r="2.56"/><circle class="cls-5" cx="1293.4" cy="455.6" r="2.56"/><circle class="cls-5" cx="1293.4" cy="495.86" r="2.56"/><circle class="cls-5" cx="1293.4" cy="536.13" r="2.56"/><circle class="cls-5" cx="1333.14" cy="375.08" r="2.56"/><circle class="cls-5" cx="1333.14" cy="415.34" r="2.56"/><circle class="cls-5" cx="1333.14" cy="455.6" r="2.56"/><circle class="cls-5" cx="1333.14" cy="495.86" r="2.56"/><circle class="cls-5" cx="1333.14" cy="536.13" r="2.56"/><circle class="cls-5" cx="1372.88" cy="375.08" r="2.56"/><circle class="cls-5" cx="1372.88" cy="415.34" r="2.56"/><circle class="cls-5" cx="1372.88" cy="455.6" r="2.56"/><circle class="cls-5" cx="1372.88" cy="495.86" r="2.56"/><circle class="cls-5" cx="1372.88" cy="536.13" r="2.56"/><circle class="cls-5" cx="1412.63" cy="375.08" r="2.56"/><circle class="cls-5" cx="1412.63" cy="415.34" r="2.56"/><circle class="cls-5" cx="1412.63" cy="455.6" r="2.56"/><circle class="cls-5" cx="1412.63" cy="495.86" r="2.56"/><circle class="cls-5" cx="1412.63" cy="536.13" r="2.56"/><circle class="cls-5" cx="1452.37" cy="375.08" r="2.56"/><circle class="cls-5" cx="1452.37" cy="415.34" r="2.56"/><circle class="cls-5" cx="1452.37" cy="455.6" r="2.56"/><circle class="cls-5" cx="1452.37" cy="495.86" r="2.56"/><circle class="cls-5" cx="1452.37" cy="536.13" r="2.56"/><circle class="cls-5" cx="1492.11" cy="375.08" r="2.56"/><circle class="cls-5" cx="1492.11" cy="415.34" r="2.56"/><circle class="cls-5" cx="1492.11" cy="455.6" r="2.56"/><circle class="cls-5" cx="1492.11" cy="495.86" r="2.56"/><circle class="cls-5" cx="1492.11" cy="536.13" r="2.56"/><circle class="cls-5" cx="1531.86" cy="375.08" r="2.56"/><circle class="cls-5" cx="1531.86" cy="415.34" r="2.56"/><circle class="cls-5" cx="1531.86" cy="455.6" r="2.56"/><circle class="cls-5" cx="1531.86" cy="495.86" r="2.56"/><circle class="cls-5" cx="1531.86" cy="536.13" r="2.56"/></g><g class="cls-4"><circle class="cls-5" cx="21.61" cy="12.72" r="2.56"/><circle class="cls-5" cx="21.61" cy="52.98" r="2.56"/><circle class="cls-5" cx="21.61" cy="93.25" r="2.56"/><circle class="cls-5" cx="21.61" cy="133.51" r="2.56"/><circle class="cls-5" cx="21.61" cy="173.77" r="2.56"/><circle class="cls-5" cx="21.61" cy="214.03" r="2.56"/><circle class="cls-5" cx="21.61" cy="254.29" r="2.56"/><circle class="cls-5" cx="21.61" cy="294.56" r="2.56"/><circle class="cls-5" cx="21.61" cy="334.82" r="2.56"/><circle class="cls-5" cx="61.35" cy="12.72" r="2.56"/><circle class="cls-5" cx="61.35" cy="52.98" r="2.56"/><circle class="cls-5" cx="61.35" cy="93.25" r="2.56"/><circle class="cls-5" cx="61.35" cy="133.51" r="2.56"/><circle class="cls-5" cx="61.35" cy="173.77" r="2.56"/><circle class="cls-5" cx="61.35" cy="214.03" r="2.56"/><circle class="cls-5" cx="61.35" cy="254.29" r="2.56"/><circle class="cls-5" cx="61.35" cy="294.56" r="2.56"/><circle class="cls-5" cx="61.35" cy="334.82" r="2.56"/><circle class="cls-5" cx="101.09" cy="12.72" r="2.56"/><circle class="cls-5" cx="101.09" cy="52.98" r="2.56"/><circle class="cls-5" cx="101.09" cy="93.25" r="2.56"/><circle class="cls-5" cx="101.09" cy="133.51" r="2.56"/><circle class="cls-5" cx="101.09" cy="173.77" r="2.56"/><circle class="cls-5" cx="101.09" cy="214.03" r="2.56"/><circle class="cls-5" cx="101.09" cy="254.29" r="2.56"/><circle class="cls-5" cx="101.09" cy="294.56" r="2.56"/><circle class="cls-5" cx="101.09" cy="334.82" r="2.56"/><circle class="cls-5" cx="140.84" cy="12.72" r="2.56"/><circle class="cls-5" cx="140.84" cy="52.98" r="2.56"/><circle class="cls-5" cx="140.84" cy="93.25" r="2.56"/><circle class="cls-5" cx="140.84" cy="133.51" r="2.56"/><circle class="cls-5" cx="140.84" cy="173.77" r="2.56"/><circle class="cls-5" cx="140.84" cy="214.03" r="2.56"/><circle class="cls-5" cx="140.84" cy="254.29" r="2.56"/><circle class="cls-5" cx="140.84" cy="294.56" r="2.56"/><circle class="cls-5" cx="140.84" cy="334.82" r="2.56"/><circle class="cls-5" cx="180.58" cy="12.72" r="2.56"/><circle class="cls-5" cx="180.58" cy="52.98" r="2.56"/><circle class="cls-5" cx="180.58" cy="93.25" r="2.56"/><circle class="cls-5" cx="180.58" cy="133.51" r="2.56"/><circle class="cls-5" cx="180.58" cy="173.77" r="2.56"/><circle class="cls-5" cx="180.58" cy="214.03" r="2.56"/><circle class="cls-5" cx="180.58" cy="254.29" r="2.56"/><circle class="cls-5" cx="180.58" cy="294.56" r="2.56"/><circle class="cls-5" cx="180.58" cy="334.82" r="2.56"/><circle class="cls-5" cx="220.32" cy="12.72" r="2.56"/><circle class="cls-5" cx="220.32" cy="52.98" r="2.56"/><circle class="cls-5" cx="220.32" cy="93.25" r="2.56"/><circle class="cls-5" cx="220.32" cy="133.51" r="2.56"/><circle class="cls-5" cx="220.32" cy="173.77" r="2.56"/><circle class="cls-5" cx="220.32" cy="214.03" r="2.56"/><circle class="cls-5" cx="220.32" cy="254.29" r="2.56"/><circle class="cls-5" cx="220.32" cy="294.56" r="2.56"/><circle class="cls-5" cx="220.32" cy="334.82" r="2.56"/><circle class="cls-5" cx="260.07" cy="12.72" r="2.56"/><circle class="cls-5" cx="260.07" cy="52.98" r="2.56"/><circle class="cls-5" cx="260.07" cy="93.25" r="2.56"/><circle class="cls-5" cx="260.07" cy="133.51" r="2.56"/><circle class="cls-5" cx="260.07" cy="173.77" r="2.56"/><circle class="cls-5" cx="260.07" cy="214.03" r="2.56"/><circle class="cls-5" cx="260.07" cy="254.29" r="2.56"/><circle class="cls-5" cx="260.07" cy="294.56" r="2.56"/><circle class="cls-5" cx="260.07" cy="334.82" r="2.56"/><circle class="cls-5" cx="299.81" cy="12.72" r="2.56"/><circle class="cls-5" cx="299.81" cy="52.98" r="2.56"/><circle class="cls-5" cx="299.81" cy="93.25" r="2.56"/><circle class="cls-5" cx="299.81" cy="133.51" r="2.56"/><circle class="cls-5" cx="299.81" cy="173.77" r="2.56"/><circle class="cls-5" cx="299.81" cy="214.03" r="2.56"/><circle class="cls-5" cx="299.81" cy="254.29" r="2.56"/><circle class="cls-5" cx="299.81" cy="294.56" r="2.56"/><circle class="cls-5" cx="299.81" cy="334.82" r="2.56"/><circle class="cls-5" cx="339.55" cy="12.72" r="2.56"/><circle class="cls-5" cx="339.55" cy="52.98" r="2.56"/><circle class="cls-5" cx="339.55" cy="93.25" r="2.56"/><circle class="cls-5" cx="339.55" cy="133.51" r="2.56"/><circle class="cls-5" cx="339.55" cy="173.77" r="2.56"/><circle class="cls-5" cx="339.55" cy="214.03" r="2.56"/><circle class="cls-5" cx="339.55" cy="254.29" r="2.56"/><circle class="cls-5" cx="339.55" cy="294.56" r="2.56"/><circle class="cls-5" cx="339.55" cy="334.82" r="2.56"/><circle class="cls-5" cx="379.3" cy="12.72" r="2.56"/><circle class="cls-5" cx="379.3" cy="52.98" r="2.56"/><circle class="cls-5" cx="379.3" cy="93.25" r="2.56"/><circle class="cls-5" cx="379.3" cy="133.51" r="2.56"/><circle class="cls-5" cx="379.3" cy="173.77" r="2.56"/><circle class="cls-5" cx="379.3" cy="214.03" r="2.56"/><circle class="cls-5" cx="379.3" cy="254.29" r="2.56"/><circle class="cls-5" cx="379.3" cy="294.56" r="2.56"/><circle class="cls-5" cx="379.3" cy="334.82" r="2.56"/><circle class="cls-5" cx="419.04" cy="12.72" r="2.56"/><circle class="cls-5" cx="419.04" cy="52.98" r="2.56"/><circle class="cls-5" cx="419.04" cy="93.25" r="2.56"/><circle class="cls-5" cx="419.04" cy="133.51" r="2.56"/><circle class="cls-5" cx="419.04" cy="173.77" r="2.56"/><circle class="cls-5" cx="419.04" cy="214.03" r="2.56"/><circle class="cls-5" cx="419.04" cy="254.29" r="2.56"/><circle class="cls-5" cx="419.04" cy="294.56" r="2.56"/><circle class="cls-5" cx="419.04" cy="334.82" r="2.56"/><circle class="cls-5" cx="458.78" cy="12.72" r="2.56"/><circle class="cls-5" cx="458.78" cy="52.98" r="2.56"/><circle class="cls-5" cx="458.78" cy="93.25" r="2.56"/><circle class="cls-5" cx="458.78" cy="133.51" r="2.56"/><circle class="cls-5" cx="458.78" cy="173.77" r="2.56"/><circle class="cls-5" cx="458.78" cy="214.03" r="2.56"/><circle class="cls-5" cx="458.78" cy="254.29" r="2.56"/><circle class="cls-5" cx="458.78" cy="294.56" r="2.56"/><circle class="cls-5" cx="458.78" cy="334.82" r="2.56"/><circle class="cls-5" cx="498.53" cy="12.72" r="2.56"/><circle class="cls-5" cx="498.53" cy="52.98" r="2.56"/><circle class="cls-5" cx="498.53" cy="93.25" r="2.56"/><circle class="cls-5" cx="498.53" cy="133.51" r="2.56"/><circle class="cls-5" cx="498.53" cy="173.77" r="2.56"/><circle class="cls-5" cx="498.53" cy="214.03" r="2.56"/><circle class="cls-5" cx="498.53" cy="254.29" r="2.56"/><circle class="cls-5" cx="498.53" cy="294.56" r="2.56"/><circle class="cls-5" cx="498.53" cy="334.82" r="2.56"/><circle class="cls-5" cx="538.27" cy="12.72" r="2.56"/><circle class="cls-5" cx="538.27" cy="52.98" r="2.56"/><circle class="cls-5" cx="538.27" cy="93.25" r="2.56"/><circle class="cls-5" cx="538.27" cy="133.51" r="2.56"/><circle class="cls-5" cx="538.27" cy="173.77" r="2.56"/><circle class="cls-5" cx="538.27" cy="214.03" r="2.56"/><circle class="cls-5" cx="538.27" cy="254.29" r="2.56"/><circle class="cls-5" cx="538.27" cy="294.56" r="2.56"/><circle class="cls-5" cx="538.27" cy="334.82" r="2.56"/><circle class="cls-5" cx="578.01" cy="12.72" r="2.56"/><circle class="cls-5" cx="578.01" cy="52.98" r="2.56"/><circle class="cls-5" cx="578.01" cy="93.25" r="2.56"/><circle class="cls-5" cx="578.01" cy="133.51" r="2.56"/><circle class="cls-5" cx="578.01" cy="173.77" r="2.56"/><circle class="cls-5" cx="578.01" cy="214.03" r="2.56"/><circle class="cls-5" cx="578.01" cy="254.29" r="2.56"/><circle class="cls-5" cx="578.01" cy="294.56" r="2.56"/><circle class="cls-5" cx="578.01" cy="334.82" r="2.56"/><circle class="cls-5" cx="617.76" cy="12.72" r="2.56"/><circle class="cls-5" cx="617.76" cy="52.98" r="2.56"/><circle class="cls-5" cx="617.76" cy="93.25" r="2.56"/><circle class="cls-5" cx="617.76" cy="133.51" r="2.56"/><circle class="cls-5" cx="617.76" cy="173.77" r="2.56"/><circle class="cls-5" cx="617.76" cy="214.03" r="2.56"/><circle class="cls-5" cx="617.76" cy="254.29" r="2.56"/><circle class="cls-5" cx="617.76" cy="294.56" r="2.56"/><circle class="cls-5" cx="617.76" cy="334.82" r="2.56"/><circle class="cls-5" cx="657.5" cy="12.72" r="2.56"/><circle class="cls-5" cx="657.5" cy="52.98" r="2.56"/><circle class="cls-5" cx="657.5" cy="93.25" r="2.56"/><circle class="cls-5" cx="657.5" cy="133.51" r="2.56"/><circle class="cls-5" cx="657.5" cy="173.77" r="2.56"/><circle class="cls-5" cx="657.5" cy="214.03" r="2.56"/><circle class="cls-5" cx="657.5" cy="254.29" r="2.56"/><circle class="cls-5" cx="657.5" cy="294.56" r="2.56"/><circle class="cls-5" cx="657.5" cy="334.82" r="2.56"/><circle class="cls-5" cx="697.24" cy="12.72" r="2.56"/><circle class="cls-5" cx="697.24" cy="52.98" r="2.56"/><circle class="cls-5" cx="697.24" cy="93.25" r="2.56"/><circle class="cls-5" cx="697.24" cy="133.51" r="2.56"/><circle class="cls-5" cx="697.24" cy="173.77" r="2.56"/><circle class="cls-5" cx="697.24" cy="214.03" r="2.56"/><circle class="cls-5" cx="697.24" cy="254.29" r="2.56"/><circle class="cls-5" cx="697.24" cy="294.56" r="2.56"/><circle class="cls-5" cx="697.24" cy="334.82" r="2.56"/><circle class="cls-5" cx="736.99" cy="12.72" r="2.56"/><circle class="cls-5" cx="736.99" cy="52.98" r="2.56"/><circle class="cls-5" cx="736.99" cy="93.25" r="2.56"/><circle class="cls-5" cx="736.99" cy="133.51" r="2.56"/><circle class="cls-5" cx="736.99" cy="173.77" r="2.56"/><circle class="cls-5" cx="736.99" cy="214.03" r="2.56"/><circle class="cls-5" cx="736.99" cy="254.29" r="2.56"/><circle class="cls-5" cx="736.99" cy="294.56" r="2.56"/><circle class="cls-5" cx="736.99" cy="334.82" r="2.56"/><circle class="cls-5" cx="776.73" cy="12.72" r="2.56"/><circle class="cls-5" cx="776.73" cy="52.98" r="2.56"/><circle class="cls-5" cx="776.73" cy="93.25" r="2.56"/><circle class="cls-5" cx="776.73" cy="133.51" r="2.56"/><circle class="cls-5" cx="776.73" cy="173.77" r="2.56"/><circle class="cls-5" cx="776.73" cy="214.03" r="2.56"/><circle class="cls-5" cx="776.73" cy="254.29" r="2.56"/><circle class="cls-5" cx="776.73" cy="294.56" r="2.56"/><circle class="cls-5" cx="776.73" cy="334.82" r="2.56"/><circle class="cls-5" cx="816.47" cy="12.72" r="2.56"/><circle class="cls-5" cx="816.47" cy="52.98" r="2.56"/><circle class="cls-5" cx="816.47" cy="93.25" r="2.56"/><circle class="cls-5" cx="816.47" cy="133.51" r="2.56"/><circle class="cls-5" cx="816.47" cy="173.77" r="2.56"/><circle class="cls-5" cx="816.47" cy="214.03" r="2.56"/><circle class="cls-5" cx="816.47" cy="254.29" r="2.56"/><circle class="cls-5" cx="816.47" cy="294.56" r="2.56"/><circle class="cls-5" cx="816.47" cy="334.82" r="2.56"/><circle class="cls-5" cx="856.22" cy="12.72" r="2.56"/><circle class="cls-5" cx="856.22" cy="52.98" r="2.56"/><circle class="cls-5" cx="856.22" cy="93.25" r="2.56"/><circle class="cls-5" cx="856.22" cy="133.51" r="2.56"/><circle class="cls-5" cx="856.22" cy="173.77" r="2.56"/><circle class="cls-5" cx="856.22" cy="214.03" r="2.56"/><circle class="cls-5" cx="856.22" cy="254.29" r="2.56"/><circle class="cls-5" cx="856.22" cy="294.56" r="2.56"/><circle class="cls-5" cx="856.22" cy="334.82" r="2.56"/><circle class="cls-5" cx="895.96" cy="12.72" r="2.56"/><circle class="cls-5" cx="895.96" cy="52.98" r="2.56"/><circle class="cls-5" cx="895.96" cy="93.25" r="2.56"/><circle class="cls-5" cx="895.96" cy="133.51" r="2.56"/><circle class="cls-5" cx="895.96" cy="173.77" r="2.56"/><circle class="cls-5" cx="895.96" cy="214.03" r="2.56"/><circle class="cls-5" cx="895.96" cy="254.29" r="2.56"/><circle class="cls-5" cx="895.96" cy="294.56" r="2.56"/><circle class="cls-5" cx="895.96" cy="334.82" r="2.56"/><circle class="cls-5" cx="935.7" cy="12.72" r="2.56"/><circle class="cls-5" cx="935.7" cy="52.98" r="2.56"/><circle class="cls-5" cx="935.7" cy="93.25" r="2.56"/><circle class="cls-5" cx="935.7" cy="133.51" r="2.56"/><circle class="cls-5" cx="935.7" cy="173.77" r="2.56"/><circle class="cls-5" cx="935.7" cy="214.03" r="2.56"/><circle class="cls-5" cx="935.7" cy="254.29" r="2.56"/><circle class="cls-5" cx="935.7" cy="294.56" r="2.56"/><circle class="cls-5" cx="935.7" cy="334.82" r="2.56"/><circle class="cls-5" cx="975.45" cy="12.72" r="2.56"/><circle class="cls-5" cx="975.45" cy="52.98" r="2.56"/><circle class="cls-5" cx="975.45" cy="93.25" r="2.56"/><circle class="cls-5" cx="975.45" cy="133.51" r="2.56"/><circle class="cls-5" cx="975.45" cy="173.77" r="2.56"/><circle class="cls-5" cx="975.45" cy="214.03" r="2.56"/><circle class="cls-5" cx="975.45" cy="254.29" r="2.56"/><circle class="cls-5" cx="975.45" cy="294.56" r="2.56"/><circle class="cls-5" cx="975.45" cy="334.82" r="2.56"/><circle class="cls-5" cx="1015.19" cy="12.72" r="2.56"/><circle class="cls-5" cx="1015.19" cy="52.98" r="2.56"/><circle class="cls-5" cx="1015.19" cy="93.25" r="2.56"/><circle class="cls-5" cx="1015.19" cy="133.51" r="2.56"/><circle class="cls-5" cx="1015.19" cy="173.77" r="2.56"/><circle class="cls-5" cx="1015.19" cy="214.03" r="2.56"/><circle class="cls-5" cx="1015.19" cy="254.29" r="2.56"/><circle class="cls-5" cx="1015.19" cy="294.56" r="2.56"/><circle class="cls-5" cx="1015.19" cy="334.82" r="2.56"/><circle class="cls-5" cx="1054.94" cy="12.72" r="2.56"/><circle class="cls-5" cx="1054.94" cy="52.98" r="2.56"/><circle class="cls-5" cx="1054.94" cy="93.25" r="2.56"/><circle class="cls-5" cx="1054.94" cy="133.51" r="2.56"/><circle class="cls-5" cx="1054.94" cy="173.77" r="2.56"/><circle class="cls-5" cx="1054.94" cy="214.03" r="2.56"/><circle class="cls-5" cx="1054.94" cy="254.29" r="2.56"/><circle class="cls-5" cx="1054.94" cy="294.56" r="2.56"/><circle class="cls-5" cx="1054.94" cy="334.82" r="2.56"/><circle class="cls-5" cx="1094.68" cy="12.72" r="2.56"/><circle class="cls-5" cx="1094.68" cy="52.98" r="2.56"/><circle class="cls-5" cx="1094.68" cy="93.25" r="2.56"/><circle class="cls-5" cx="1094.68" cy="133.51" r="2.56"/><circle class="cls-5" cx="1094.68" cy="173.77" r="2.56"/><circle class="cls-5" cx="1094.68" cy="214.03" r="2.56"/><circle class="cls-5" cx="1094.68" cy="254.29" r="2.56"/><circle class="cls-5" cx="1094.68" cy="294.56" r="2.56"/><circle class="cls-5" cx="1094.68" cy="334.82" r="2.56"/><circle class="cls-5" cx="1134.42" cy="12.72" r="2.56"/><circle class="cls-5" cx="1134.42" cy="52.98" r="2.56"/><circle class="cls-5" cx="1134.42" cy="93.25" r="2.56"/><circle class="cls-5" cx="1134.42" cy="133.51" r="2.56"/><circle class="cls-5" cx="1134.42" cy="173.77" r="2.56"/><circle class="cls-5" cx="1134.42" cy="214.03" r="2.56"/><circle class="cls-5" cx="1134.42" cy="254.29" r="2.56"/><circle class="cls-5" cx="1134.42" cy="294.56" r="2.56"/><circle class="cls-5" cx="1134.42" cy="334.82" r="2.56"/><circle class="cls-5" cx="1174.17" cy="12.72" r="2.56"/><circle class="cls-5" cx="1174.17" cy="52.98" r="2.56"/><circle class="cls-5" cx="1174.17" cy="93.25" r="2.56"/><circle class="cls-5" cx="1174.17" cy="133.51" r="2.56"/><circle class="cls-5" cx="1174.17" cy="173.77" r="2.56"/><circle class="cls-5" cx="1174.17" cy="214.03" r="2.56"/><circle class="cls-5" cx="1174.17" cy="254.29" r="2.56"/><circle class="cls-5" cx="1174.17" cy="294.56" r="2.56"/><circle class="cls-5" cx="1174.17" cy="334.82" r="2.56"/><circle class="cls-5" cx="1213.91" cy="12.72" r="2.56"/><circle class="cls-5" cx="1213.91" cy="52.98" r="2.56"/><circle class="cls-5" cx="1213.91" cy="93.25" r="2.56"/><circle class="cls-5" cx="1213.91" cy="133.51" r="2.56"/><circle class="cls-5" cx="1213.91" cy="173.77" r="2.56"/><circle class="cls-5" cx="1213.91" cy="214.03" r="2.56"/><circle class="cls-5" cx="1213.91" cy="254.29" r="2.56"/><circle class="cls-5" cx="1213.91" cy="294.56" r="2.56"/><circle class="cls-5" cx="1213.91" cy="334.82" r="2.56"/><circle class="cls-5" cx="1253.65" cy="12.72" r="2.56"/><circle class="cls-5" cx="1253.65" cy="52.98" r="2.56"/><circle class="cls-5" cx="1253.65" cy="93.25" r="2.56"/><circle class="cls-5" cx="1253.65" cy="133.51" r="2.56"/><circle class="cls-5" cx="1253.65" cy="173.77" r="2.56"/><circle class="cls-5" cx="1253.65" cy="214.03" r="2.56"/><circle class="cls-5" cx="1253.65" cy="254.29" r="2.56"/><circle class="cls-5" cx="1253.65" cy="294.56" r="2.56"/><circle class="cls-5" cx="1253.65" cy="334.82" r="2.56"/><circle class="cls-5" cx="1293.4" cy="12.72" r="2.56"/><circle class="cls-5" cx="1293.4" cy="52.98" r="2.56"/><circle class="cls-5" cx="1293.4" cy="93.25" r="2.56"/><circle class="cls-5" cx="1293.4" cy="133.51" r="2.56"/><circle class="cls-5" cx="1293.4" cy="173.77" r="2.56"/><circle class="cls-5" cx="1293.4" cy="214.03" r="2.56"/><circle class="cls-5" cx="1293.4" cy="254.29" r="2.56"/><circle class="cls-5" cx="1293.4" cy="294.56" r="2.56"/><circle class="cls-5" cx="1293.4" cy="334.82" r="2.56"/><circle class="cls-5" cx="1333.14" cy="12.72" r="2.56"/><circle class="cls-5" cx="1333.14" cy="52.98" r="2.56"/><circle class="cls-5" cx="1333.14" cy="93.25" r="2.56"/><circle class="cls-5" cx="1333.14" cy="133.51" r="2.56"/><circle class="cls-5" cx="1333.14" cy="173.77" r="2.56"/><circle class="cls-5" cx="1333.14" cy="214.03" r="2.56"/><circle class="cls-5" cx="1333.14" cy="254.29" r="2.56"/><circle class="cls-5" cx="1333.14" cy="294.56" r="2.56"/><circle class="cls-5" cx="1333.14" cy="334.82" r="2.56"/><circle class="cls-5" cx="1372.88" cy="12.72" r="2.56"/><circle class="cls-5" cx="1372.88" cy="52.98" r="2.56"/><circle class="cls-5" cx="1372.88" cy="93.25" r="2.56"/><circle class="cls-5" cx="1372.88" cy="133.51" r="2.56"/><circle class="cls-5" cx="1372.88" cy="173.77" r="2.56"/><circle class="cls-5" cx="1372.88" cy="214.03" r="2.56"/><circle class="cls-5" cx="1372.88" cy="254.29" r="2.56"/><circle class="cls-5" cx="1372.88" cy="294.56" r="2.56"/><circle class="cls-5" cx="1372.88" cy="334.82" r="2.56"/><circle class="cls-5" cx="1412.63" cy="12.72" r="2.56"/><circle class="cls-5" cx="1412.63" cy="52.98" r="2.56"/><circle class="cls-5" cx="1412.63" cy="93.25" r="2.56"/><circle class="cls-5" cx="1412.63" cy="133.51" r="2.56"/><circle class="cls-5" cx="1412.63" cy="173.77" r="2.56"/><circle class="cls-5" cx="1412.63" cy="214.03" r="2.56"/><circle class="cls-5" cx="1412.63" cy="254.29" r="2.56"/><circle class="cls-5" cx="1412.63" cy="294.56" r="2.56"/><circle class="cls-5" cx="1412.63" cy="334.82" r="2.56"/><circle class="cls-5" cx="1452.37" cy="12.72" r="2.56"/><circle class="cls-5" cx="1452.37" cy="52.98" r="2.56"/><circle class="cls-5" cx="1452.37" cy="93.25" r="2.56"/><circle class="cls-5" cx="1452.37" cy="133.51" r="2.56"/><circle class="cls-5" cx="1452.37" cy="173.77" r="2.56"/><circle class="cls-5" cx="1452.37" cy="214.03" r="2.56"/><circle class="cls-5" cx="1452.37" cy="254.29" r="2.56"/><circle class="cls-5" cx="1452.37" cy="294.56" r="2.56"/><circle class="cls-5" cx="1452.37" cy="334.82" r="2.56"/><circle class="cls-5" cx="1492.11" cy="12.72" r="2.56"/><circle class="cls-5" cx="1492.11" cy="52.98" r="2.56"/><circle class="cls-5" cx="1492.11" cy="93.25" r="2.56"/><circle class="cls-5" cx="1492.11" cy="133.51" r="2.56"/><circle class="cls-5" cx="1492.11" cy="173.77" r="2.56"/><circle class="cls-5" cx="1492.11" cy="214.03" r="2.56"/><circle class="cls-5" cx="1492.11" cy="254.29" r="2.56"/><circle class="cls-5" cx="1492.11" cy="294.56" r="2.56"/><circle class="cls-5" cx="1492.11" cy="334.82" r="2.56"/><circle class="cls-5" cx="1531.86" cy="12.72" r="2.56"/><circle class="cls-5" cx="1531.86" cy="52.98" r="2.56"/><circle class="cls-5" cx="1531.86" cy="93.25" r="2.56"/><circle class="cls-5" cx="1531.86" cy="133.51" r="2.56"/><circle class="cls-5" cx="1531.86" cy="173.77" r="2.56"/><circle class="cls-5" cx="1531.86" cy="214.03" r="2.56"/><circle class="cls-5" cx="1531.86" cy="254.29" r="2.56"/><circle class="cls-5" cx="1531.86" cy="294.56" r="2.56"/><circle class="cls-5" cx="1531.86" cy="334.82" r="2.56"/></g><rect class="cls-6" x="-534.8" y="52.98" width="1271.79" height="80.52"/><rect class="cls-6" x="-495.06" y="93.24" width="1351.27" height="80.52"/><g class="cls-7"><path d="M936,287A26.06,26.06,0,0,1,909.93,313H883.87V260.9h26.06A26.07,26.07,0,0,1,936,287Z"/><path d="M1061.1,177.5v41.71h-41.71V287A109.43,109.43,0,0,1,909.93,396.42H800.46V298.7h41.7v56h67.77a67.76,67.76,0,1,0,0-135.52H800.46V177.5H977.69V135.8h41.7v41.7Z"/><path d="M935.51,286.49a26.06,26.06,0,0,1-26.06,26.06H883.39V260.42h26.06A26.07,26.07,0,0,1,935.51,286.49Z"/><path d="M1060.62,177v41.71h-41.71v67.76A109.43,109.43,0,0,1,909.45,395.94H800V298.22h41.7v56h67.77a67.76,67.76,0,0,0,0-135.52H800V177H977.21v-41.7h41.7V177Z"/><path d="M935,286A26.06,26.06,0,0,1,909,312.07H882.91V259.94H909A26.07,26.07,0,0,1,935,286Z"/><path d="M1060.14,176.54v41.71h-41.71V286A109.43,109.43,0,0,1,909,395.46H799.5V297.74h41.7v56H909a67.76,67.76,0,0,0,0-135.52H799.5V176.54H976.73v-41.7h41.7v41.7Z"/><path d="M934.55,285.53a26.06,26.06,0,0,1-26.06,26.06H882.43V259.46h26.06A26.07,26.07,0,0,1,934.55,285.53Z"/><path d="M1059.66,176.06v41.71H1018v67.76A109.43,109.43,0,0,1,908.49,395H799V297.26h41.7v56h67.77a67.76,67.76,0,0,0,0-135.52H799V176.06H976.25v-41.7H1018v41.7Z"/><path d="M934.07,285.05A26.06,26.06,0,0,1,908,311.11H882V259H908A26.07,26.07,0,0,1,934.07,285.05Z"/><path d="M1059.18,175.58v41.71h-41.71v67.76A109.43,109.43,0,0,1,908,394.5H798.54V296.78h41.7v56H908a67.76,67.76,0,0,0,0-135.52H798.54V175.58H975.77v-41.7h41.7v41.7Z"/><path d="M933.59,284.57a26.06,26.06,0,0,1-26.06,26.06H881.47V258.5h26.06A26.07,26.07,0,0,1,933.59,284.57Z"/><path d="M1058.7,175.1v41.71H1017v67.76A109.43,109.43,0,0,1,907.53,394H798.06V296.3h41.7v56h67.77a67.76,67.76,0,0,0,0-135.52H798.06V175.1H975.29V133.4H1017v41.7Z"/><path d="M933.11,284.09a26.06,26.06,0,0,1-26.06,26.06H881V258h26.06A26.07,26.07,0,0,1,933.11,284.09Z"/><path d="M1058.22,174.62v41.71h-41.71v67.76A109.43,109.43,0,0,1,907.05,393.54H797.58V295.82h41.7v56h67.77a67.76,67.76,0,0,0,0-135.52H797.58V174.62H974.81v-41.7h41.7v41.7Z"/><path d="M932.63,283.61a26.06,26.06,0,0,1-26.06,26.06H880.51V257.54h26.06A26.07,26.07,0,0,1,932.63,283.61Z"/><path d="M1057.74,174.14v41.71H1016v67.76A109.43,109.43,0,0,1,906.57,393.06H797.1V295.34h41.7v56h67.77a67.76,67.76,0,0,0,0-135.52H797.1V174.14H974.33v-41.7H1016v41.7Z"/><path d="M932.15,283.13a26.06,26.06,0,0,1-26.06,26.06H880V257.06h26.06A26.07,26.07,0,0,1,932.15,283.13Z"/><path d="M1057.26,173.66v41.71h-41.71v67.76A109.43,109.43,0,0,1,906.09,392.58H796.62V294.86h41.7v56h67.77a67.76,67.76,0,0,0,0-135.52H796.62V173.66H973.85V132h41.7v41.7Z"/><path d="M931.67,282.65a26.06,26.06,0,0,1-26.06,26.06H879.55V256.58h26.06A26.07,26.07,0,0,1,931.67,282.65Z"/><path d="M1056.78,173.18v41.71h-41.71v67.76A109.43,109.43,0,0,1,905.61,392.1H796.14V294.38h41.7v56h67.77a67.76,67.76,0,0,0,0-135.52H796.14V173.18H973.37v-41.7h41.7v41.7Z"/><path d="M931.19,282.17a26.06,26.06,0,0,1-26.06,26.06H879.07V256.1h26.06A26.07,26.07,0,0,1,931.19,282.17Z"/><path d="M1056.3,172.7v41.71h-41.71v67.76A109.43,109.43,0,0,1,905.13,391.62H795.66V293.9h41.7v56h67.77a67.76,67.76,0,0,0,0-135.52H795.66V172.7H972.89V131h41.7v41.7Z"/><path d="M930.71,281.69a26.06,26.06,0,0,1-26.06,26.06H878.59V255.62h26.06A26.07,26.07,0,0,1,930.71,281.69Z"/><path d="M1055.82,172.22v41.71h-41.71v67.76A109.43,109.43,0,0,1,904.65,391.14H795.18V293.42h41.7v56h67.77a67.76,67.76,0,0,0,0-135.52H795.18V172.22H972.41v-41.7h41.7v41.7Z"/><path d="M930.23,281.21a26.06,26.06,0,0,1-26.06,26.06H878.11V255.14h26.06A26.07,26.07,0,0,1,930.23,281.21Z"/><path d="M1055.34,171.74v41.71h-41.71v67.76A109.43,109.43,0,0,1,904.17,390.66H794.7V292.94h41.7v56h67.77a67.76,67.76,0,0,0,0-135.52H794.7V171.74H971.93V130h41.7v41.7Z"/><path d="M929.75,280.73a26.06,26.06,0,0,1-26.06,26.06H877.63V254.66h26.06A26.07,26.07,0,0,1,929.75,280.73Z"/><path d="M1054.86,171.26V213h-41.71v67.76A109.43,109.43,0,0,1,903.69,390.18H794.22V292.46h41.7v56h67.77a67.76,67.76,0,0,0,0-135.52H794.22V171.26H971.45v-41.7h41.7v41.7Z"/><path d="M929.27,280.25a26.06,26.06,0,0,1-26.06,26.06H877.15V254.18h26.06A26.07,26.07,0,0,1,929.27,280.25Z"/><path d="M1054.38,170.78v41.71h-41.71v67.76A109.43,109.43,0,0,1,903.21,389.7H793.74V292h41.7v56h67.77a67.76,67.76,0,0,0,0-135.52H793.74V170.78H971v-41.7h41.7v41.7Z"/><path d="M928.79,279.77a26.06,26.06,0,0,1-26.06,26.06H876.67V253.7h26.06A26.07,26.07,0,0,1,928.79,279.77Z"/><path d="M1053.9,170.3V212h-41.71v67.76A109.43,109.43,0,0,1,902.73,389.22H793.26V291.5H835v56h67.77a67.76,67.76,0,0,0,0-135.52H793.26V170.3H970.49V128.6h41.7v41.7Z"/><path d="M928.31,279.29a26.06,26.06,0,0,1-26.06,26.06H876.19V253.22h26.06A26.07,26.07,0,0,1,928.31,279.29Z"/><path d="M1053.42,169.82v41.71h-41.71v67.76A109.43,109.43,0,0,1,902.25,388.74H792.78V291h41.7v56h67.77a67.76,67.76,0,0,0,0-135.52H792.78V169.82H970v-41.7h41.7v41.7Z"/><path d="M927.83,278.81a26.06,26.06,0,0,1-26.06,26.06H875.71V252.74h26.06A26.07,26.07,0,0,1,927.83,278.81Z"/><path d="M1052.94,169.34v41.71h-41.71v67.76A109.43,109.43,0,0,1,901.77,388.26H792.3V290.54H834v56h67.77a67.76,67.76,0,0,0,0-135.52H792.3V169.34H969.53v-41.7h41.7v41.7Z"/><path d="M927.35,278.33a26.06,26.06,0,0,1-26.06,26.06H875.23V252.26h26.06A26.07,26.07,0,0,1,927.35,278.33Z"/><path d="M1052.46,168.86v41.71h-41.71v67.76A109.43,109.43,0,0,1,901.29,387.78H791.82V290.06h41.7v56h67.77a67.76,67.76,0,0,0,0-135.52H791.82V168.86H969.05v-41.7h41.7v41.7Z"/><path d="M926.87,277.85a26.06,26.06,0,0,1-26.06,26.06H874.75V251.78h26.06A26.07,26.07,0,0,1,926.87,277.85Z"/><path d="M1052,168.38v41.71h-41.71v67.76A109.43,109.43,0,0,1,900.81,387.3H791.34V289.58H833v56h67.77a67.76,67.76,0,1,0,0-135.52H791.34V168.38H968.57v-41.7h41.7v41.7Z"/><path d="M926.39,277.37a26.06,26.06,0,0,1-26.06,26.06H874.27V251.3h26.06A26.07,26.07,0,0,1,926.39,277.37Z"/><path d="M1051.5,167.9v41.71h-41.71v67.76A109.43,109.43,0,0,1,900.33,386.82H790.86V289.1h41.7v56h67.77a67.76,67.76,0,0,0,0-135.52H790.86V167.9H968.09V126.2h41.7v41.7Z"/><path d="M925.91,276.89A26.06,26.06,0,0,1,899.85,303H873.79V250.82h26.06A26.07,26.07,0,0,1,925.91,276.89Z"/><path d="M1051,167.42v41.71h-41.71v67.76A109.43,109.43,0,0,1,899.85,386.34H790.38V288.62h41.7v56h67.77a67.76,67.76,0,0,0,0-135.52H790.38V167.42H967.61v-41.7h41.7v41.7Z"/><path d="M925.43,276.41a26.06,26.06,0,0,1-26.06,26.06H873.31V250.34h26.06A26.07,26.07,0,0,1,925.43,276.41Z"/><path d="M1050.54,166.94v41.71h-41.71v67.76A109.43,109.43,0,0,1,899.37,385.86H789.9V288.14h41.7v56h67.77a67.76,67.76,0,0,0,0-135.52H789.9V166.94H967.13v-41.7h41.7v41.7Z"/><path d="M925,275.93A26.06,26.06,0,0,1,898.89,302H872.83V249.86h26.06A26.07,26.07,0,0,1,925,275.93Z"/><path d="M1050.06,166.46v41.71h-41.71v67.76A109.43,109.43,0,0,1,898.89,385.38H789.42V287.66h41.7v56h67.77a67.76,67.76,0,0,0,0-135.52H789.42V166.46H966.65v-41.7h41.7v41.7Z"/><path d="M924.47,275.45a26.06,26.06,0,0,1-26.06,26.06H872.35V249.38h26.06A26.07,26.07,0,0,1,924.47,275.45Z"/><path d="M1049.58,166v41.71h-41.71v67.76A109.43,109.43,0,0,1,898.41,384.9H788.94V287.18h41.7v56h67.77a67.76,67.76,0,0,0,0-135.52H788.94V166H966.17v-41.7h41.7V166Z"/><path d="M924,275A26.06,26.06,0,0,1,897.93,301H871.87V248.9h26.06A26.07,26.07,0,0,1,924,275Z"/><path d="M1049.1,165.5v41.71h-41.71V275A109.43,109.43,0,0,1,897.93,384.42H788.46V286.7h41.7v56h67.77a67.76,67.76,0,1,0,0-135.52H788.46V165.5H965.69V123.8h41.7v41.7Z"/><path d="M923.51,274.49a26.06,26.06,0,0,1-26.06,26.06H871.39V248.42h26.06A26.07,26.07,0,0,1,923.51,274.49Z"/><path d="M1048.62,165v41.71h-41.71v67.76A109.43,109.43,0,0,1,897.45,383.94H788V286.22h41.7v56h67.77a67.76,67.76,0,0,0,0-135.52H788V165H965.21v-41.7h41.7V165Z"/><path d="M923,274A26.06,26.06,0,0,1,897,300.07H870.91V247.94H897A26.07,26.07,0,0,1,923,274Z"/><path d="M1048.14,164.54v41.71h-41.71V274A109.43,109.43,0,0,1,897,383.46H787.5V285.74h41.7v56H897a67.76,67.76,0,0,0,0-135.52H787.5V164.54H964.73v-41.7h41.7v41.7Z"/><path d="M922.55,273.53a26.06,26.06,0,0,1-26.06,26.06H870.43V247.46h26.06A26.07,26.07,0,0,1,922.55,273.53Z"/><path d="M1047.66,164.06v41.71H1006v67.76A109.43,109.43,0,0,1,896.49,383H787V285.26h41.7v56h67.77a67.76,67.76,0,0,0,0-135.52H787V164.06H964.25v-41.7H1006v41.7Z"/><path d="M922.07,273.05A26.06,26.06,0,0,1,896,299.11H870V247H896A26.07,26.07,0,0,1,922.07,273.05Z"/><path d="M1047.18,163.58v41.71h-41.71v67.76A109.43,109.43,0,0,1,896,382.5H786.54V284.78h41.7v56H896a67.76,67.76,0,0,0,0-135.52H786.54V163.58H963.77v-41.7h41.7v41.7Z"/><path d="M921.59,272.57a26.06,26.06,0,0,1-26.06,26.06H869.47V246.5h26.06A26.07,26.07,0,0,1,921.59,272.57Z"/><path d="M1046.7,163.1v41.71H1005v67.76A109.43,109.43,0,0,1,895.53,382H786.06V284.3h41.7v56h67.77a67.76,67.76,0,0,0,0-135.52H786.06V163.1H963.29V121.4H1005v41.7Z"/><path d="M921.11,272.09a26.06,26.06,0,0,1-26.06,26.06H869V246h26.06A26.07,26.07,0,0,1,921.11,272.09Z"/><path d="M1046.22,162.62v41.71h-41.71v67.76A109.43,109.43,0,0,1,895.05,381.54H785.58V283.82h41.7v56h67.77a67.76,67.76,0,0,0,0-135.52H785.58V162.62H962.81v-41.7h41.7v41.7Z"/><path d="M920.63,271.61a26.06,26.06,0,0,1-26.06,26.06H868.51V245.54h26.06A26.07,26.07,0,0,1,920.63,271.61Z"/><path d="M1045.74,162.14v41.71H1004v67.76A109.43,109.43,0,0,1,894.57,381.06H785.1V283.34h41.7v56h67.77a67.76,67.76,0,0,0,0-135.52H785.1V162.14H962.33v-41.7H1004v41.7Z"/><path d="M920.15,271.13a26.06,26.06,0,0,1-26.06,26.06H868V245.06h26.06A26.07,26.07,0,0,1,920.15,271.13Z"/><path d="M1045.26,161.66v41.71h-41.71v67.76A109.43,109.43,0,0,1,894.09,380.58H784.62V282.86h41.7v56h67.77a67.76,67.76,0,0,0,0-135.52H784.62V161.66H961.85V120h41.7v41.7Z"/><path d="M919.67,270.65a26.06,26.06,0,0,1-26.06,26.06H867.55V244.58h26.06A26.07,26.07,0,0,1,919.67,270.65Z"/><path d="M1044.78,161.18v41.71h-41.71v67.76A109.43,109.43,0,0,1,893.61,380.1H784.14V282.38h41.7v56h67.77a67.76,67.76,0,0,0,0-135.52H784.14V161.18H961.37v-41.7h41.7v41.7Z"/><path d="M919.19,270.17a26.06,26.06,0,0,1-26.06,26.06H867.07V244.1h26.06A26.07,26.07,0,0,1,919.19,270.17Z"/><path d="M1044.3,160.7v41.71h-41.71v67.76A109.43,109.43,0,0,1,893.13,379.62H783.66V281.9h41.7v56h67.77a67.76,67.76,0,0,0,0-135.52H783.66V160.7H960.89V119h41.7v41.7Z"/><path d="M918.71,269.69a26.06,26.06,0,0,1-26.06,26.06H866.59V243.62h26.06A26.07,26.07,0,0,1,918.71,269.69Z"/><path d="M1043.82,160.22v41.71h-41.71v67.76A109.43,109.43,0,0,1,892.65,379.14H783.18V281.42h41.7v56h67.77a67.76,67.76,0,0,0,0-135.52H783.18V160.22H960.41v-41.7h41.7v41.7Z"/><path d="M918.23,269.21a26.06,26.06,0,0,1-26.06,26.06H866.11V243.14h26.06A26.07,26.07,0,0,1,918.23,269.21Z"/><path d="M1043.34,159.74v41.71h-41.71v67.76A109.43,109.43,0,0,1,892.17,378.66H782.7V280.94h41.7v56h67.77a67.76,67.76,0,0,0,0-135.52H782.7V159.74H959.93V118h41.7v41.7Z"/><path d="M917.75,268.73a26.06,26.06,0,0,1-26.06,26.06H865.63V242.66h26.06A26.07,26.07,0,0,1,917.75,268.73Z"/><path d="M1042.86,159.26V201h-41.71v67.76A109.43,109.43,0,0,1,891.69,378.18H782.22V280.46h41.7v56h67.77a67.76,67.76,0,0,0,0-135.52H782.22V159.26H959.45v-41.7h41.7v41.7Z"/><path d="M917.27,268.25a26.06,26.06,0,0,1-26.06,26.06H865.15V242.18h26.06A26.07,26.07,0,0,1,917.27,268.25Z"/><path d="M1042.38,158.78v41.71h-41.71v67.76A109.43,109.43,0,0,1,891.21,377.7H781.74V280h41.7v56h67.77a67.76,67.76,0,0,0,0-135.52H781.74V158.78H959v-41.7h41.7v41.7Z"/><path d="M916.79,267.77a26.06,26.06,0,0,1-26.06,26.06H864.67V241.7h26.06A26.07,26.07,0,0,1,916.79,267.77Z"/><path d="M1041.9,158.3V200h-41.71v67.76A109.43,109.43,0,0,1,890.73,377.22H781.26V279.5H823v56h67.77a67.76,67.76,0,0,0,0-135.52H781.26V158.3H958.49V116.6h41.7v41.7Z"/><path d="M916.31,267.29a26.06,26.06,0,0,1-26.06,26.06H864.19V241.22h26.06A26.07,26.07,0,0,1,916.31,267.29Z"/><path d="M1041.42,157.82v41.71H999.71v67.76A109.43,109.43,0,0,1,890.25,376.74H780.78V279h41.7v56h67.77a67.76,67.76,0,0,0,0-135.52H780.78V157.82H958v-41.7h41.7v41.7Z"/><path d="M915.83,266.81a26.06,26.06,0,0,1-26.06,26.06H863.71V240.74h26.06A26.07,26.07,0,0,1,915.83,266.81Z"/><path d="M1040.94,157.34v41.71H999.23v67.76A109.43,109.43,0,0,1,889.77,376.26H780.3V278.54H822v56h67.77a67.76,67.76,0,0,0,0-135.52H780.3V157.34H957.53v-41.7h41.7v41.7Z"/><path d="M915.35,266.33a26.06,26.06,0,0,1-26.06,26.06H863.23V240.26h26.06A26.07,26.07,0,0,1,915.35,266.33Z"/><path d="M1040.46,156.86v41.71H998.75v67.76A109.43,109.43,0,0,1,889.29,375.78H779.82V278.06h41.7v56h67.77a67.76,67.76,0,0,0,0-135.52H779.82V156.86H957.05v-41.7h41.7v41.7Z"/><path d="M914.87,265.85a26.06,26.06,0,0,1-26.06,26.06H862.75V239.78h26.06A26.07,26.07,0,0,1,914.87,265.85Z"/><path d="M1040,156.38v41.71H998.27v67.76A109.43,109.43,0,0,1,888.81,375.3H779.34V277.58H821v56h67.77a67.76,67.76,0,1,0,0-135.52H779.34V156.38H956.57v-41.7h41.7v41.7Z"/><path d="M914.39,265.37a26.06,26.06,0,0,1-26.06,26.06H862.27V239.3h26.06A26.07,26.07,0,0,1,914.39,265.37Z"/><path d="M1039.5,155.9v41.71H997.79v67.76A109.43,109.43,0,0,1,888.33,374.82H778.86V277.1h41.7v56h67.77a67.76,67.76,0,0,0,0-135.52H778.86V155.9H956.09V114.2h41.7v41.7Z"/><path d="M913.91,264.89A26.06,26.06,0,0,1,887.85,291H861.79V238.82h26.06A26.07,26.07,0,0,1,913.91,264.89Z"/><path d="M1039,155.42v41.71H997.31v67.76A109.43,109.43,0,0,1,887.85,374.34H778.38V276.62h41.7v56h67.77a67.76,67.76,0,0,0,0-135.52H778.38V155.42H955.61v-41.7h41.7v41.7Z"/><path d="M913.43,264.41a26.06,26.06,0,0,1-26.06,26.06H861.31V238.34h26.06A26.07,26.07,0,0,1,913.43,264.41Z"/><path d="M1038.54,154.94v41.71H996.83v67.76A109.43,109.43,0,0,1,887.37,373.86H777.9V276.14h41.7v56h67.77a67.76,67.76,0,0,0,0-135.52H777.9V154.94H955.13v-41.7h41.7v41.7Z"/><path d="M913,263.93A26.06,26.06,0,0,1,886.89,290H860.83V237.86h26.06A26.07,26.07,0,0,1,913,263.93Z"/><path d="M1038.06,154.46v41.71H996.35v67.76A109.43,109.43,0,0,1,886.89,373.38H777.42V275.66h41.7v56h67.77a67.76,67.76,0,0,0,0-135.52H777.42V154.46H954.65v-41.7h41.7v41.7Z"/><path d="M912.47,263.45a26.06,26.06,0,0,1-26.06,26.06H860.35V237.38h26.06A26.07,26.07,0,0,1,912.47,263.45Z"/><path d="M1037.58,154v41.71H995.87v67.76A109.43,109.43,0,0,1,886.41,372.9H776.94V275.18h41.7v56h67.77a67.76,67.76,0,0,0,0-135.52H776.94V154H954.17v-41.7h41.7V154Z"/><path d="M912,263A26.06,26.06,0,0,1,885.93,289H859.87V236.9h26.06A26.07,26.07,0,0,1,912,263Z"/><path d="M1037.1,153.5v41.71H995.39V263A109.43,109.43,0,0,1,885.93,372.42H776.46V274.7h41.7v56h67.77a67.76,67.76,0,1,0,0-135.52H776.46V153.5H953.69V111.8h41.7v41.7Z"/><path d="M911.51,262.49a26.06,26.06,0,0,1-26.06,26.06H859.39V236.42h26.06A26.07,26.07,0,0,1,911.51,262.49Z"/><path d="M1036.62,153v41.71H994.91v67.76A109.43,109.43,0,0,1,885.45,371.94H776V274.22h41.7v56h67.77a67.76,67.76,0,0,0,0-135.52H776V153H953.21v-41.7h41.7V153Z"/><path d="M911,262A26.06,26.06,0,0,1,885,288.07H858.91V235.94H885A26.07,26.07,0,0,1,911,262Z"/><path d="M1036.14,152.54v41.71H994.43V262A109.43,109.43,0,0,1,885,371.46H775.5V273.74h41.7v56H885a67.76,67.76,0,0,0,0-135.52H775.5V152.54H952.73v-41.7h41.7v41.7Z"/><path d="M910.55,261.53a26.06,26.06,0,0,1-26.06,26.06H858.43V235.46h26.06A26.07,26.07,0,0,1,910.55,261.53Z"/><path d="M1035.66,152.06v41.71H994v67.76A109.43,109.43,0,0,1,884.49,371H775V273.26h41.7v56h67.77a67.76,67.76,0,0,0,0-135.52H775V152.06H952.25v-41.7H994v41.7Z"/><path d="M910.07,261.05A26.06,26.06,0,0,1,884,287.11H858V235H884A26.07,26.07,0,0,1,910.07,261.05Z"/><path d="M1035.18,151.58v41.71H993.47v67.76A109.43,109.43,0,0,1,884,370.5H774.54V272.78h41.7v56H884a67.76,67.76,0,0,0,0-135.52H774.54V151.58H951.77v-41.7h41.7v41.7Z"/><path d="M909.59,260.57a26.06,26.06,0,0,1-26.06,26.06H857.47V234.5h26.06A26.07,26.07,0,0,1,909.59,260.57Z"/><path d="M1034.7,151.1v41.71H993v67.76A109.43,109.43,0,0,1,883.53,370H774.06V272.3h41.7v56h67.77a67.76,67.76,0,0,0,0-135.52H774.06V151.1H951.29V109.4H993v41.7Z"/><path d="M909.11,260.09a26.06,26.06,0,0,1-26.06,26.06H857V234h26.06A26.07,26.07,0,0,1,909.11,260.09Z"/><path d="M1034.22,150.62v41.71H992.51v67.76A109.43,109.43,0,0,1,883.05,369.54H773.58V271.82h41.7v56h67.77a67.76,67.76,0,0,0,0-135.52H773.58V150.62H950.81v-41.7h41.7v41.7Z"/><path d="M908.63,259.61a26.06,26.06,0,0,1-26.06,26.06H856.51V233.54h26.06A26.07,26.07,0,0,1,908.63,259.61Z"/><path d="M1033.74,150.14v41.71H992v67.76A109.43,109.43,0,0,1,882.57,369.06H773.1V271.34h41.7v56h67.77a67.76,67.76,0,0,0,0-135.52H773.1V150.14H950.33v-41.7H992v41.7Z"/><path d="M908.15,259.13a26.06,26.06,0,0,1-26.06,26.06H856V233.06h26.06A26.07,26.07,0,0,1,908.15,259.13Z"/><path d="M1033.26,149.66v41.71H991.55v67.76A109.43,109.43,0,0,1,882.09,368.58H772.62V270.86h41.7v56h67.77a67.76,67.76,0,0,0,0-135.52H772.62V149.66H949.85V108h41.7v41.7Z"/><path d="M907.67,258.65a26.06,26.06,0,0,1-26.06,26.06H855.55V232.58h26.06A26.07,26.07,0,0,1,907.67,258.65Z"/><path d="M1032.78,149.18v41.71H991.07v67.76A109.43,109.43,0,0,1,881.61,368.1H772.14V270.38h41.7v56h67.77a67.76,67.76,0,0,0,0-135.52H772.14V149.18H949.37v-41.7h41.7v41.7Z"/><path d="M907.19,258.17a26.06,26.06,0,0,1-26.06,26.06H855.07V232.1h26.06A26.07,26.07,0,0,1,907.19,258.17Z"/><path d="M1032.3,148.7v41.71H990.59v67.76A109.43,109.43,0,0,1,881.13,367.62H771.66V269.9h41.7v56h67.77a67.76,67.76,0,0,0,0-135.52H771.66V148.7H948.89V107h41.7v41.7Z"/><path d="M906.71,257.69a26.06,26.06,0,0,1-26.06,26.06H854.59V231.62h26.06A26.07,26.07,0,0,1,906.71,257.69Z"/><path d="M1031.82,148.22v41.71H990.11v67.76A109.43,109.43,0,0,1,880.65,367.14H771.18V269.42h41.7v56h67.77a67.76,67.76,0,0,0,0-135.52H771.18V148.22H948.41v-41.7h41.7v41.7Z"/><path d="M906.23,257.21a26.06,26.06,0,0,1-26.06,26.06H854.11V231.14h26.06A26.07,26.07,0,0,1,906.23,257.21Z"/><path d="M1031.34,147.74v41.71H989.63v67.76A109.43,109.43,0,0,1,880.17,366.66H770.7V268.94h41.7v56h67.77a67.76,67.76,0,0,0,0-135.52H770.7V147.74H947.93V106h41.7v41.7Z"/><path d="M905.75,256.73a26.06,26.06,0,0,1-26.06,26.06H853.63V230.66h26.06A26.07,26.07,0,0,1,905.75,256.73Z"/><path d="M1030.86,147.26V189H989.15v67.76A109.43,109.43,0,0,1,879.69,366.18H770.22V268.46h41.7v56h67.77a67.76,67.76,0,0,0,0-135.52H770.22V147.26H947.45v-41.7h41.7v41.7Z"/><path d="M905.27,256.25a26.06,26.06,0,0,1-26.06,26.06H853.15V230.18h26.06A26.07,26.07,0,0,1,905.27,256.25Z"/><path d="M1030.38,146.78v41.71H988.67v67.76A109.43,109.43,0,0,1,879.21,365.7H769.74V268h41.7v56h67.77a67.76,67.76,0,0,0,0-135.52H769.74V146.78H947v-41.7h41.7v41.7Z"/><path d="M904.79,255.77a26.06,26.06,0,0,1-26.06,26.06H852.67V229.7h26.06A26.07,26.07,0,0,1,904.79,255.77Z"/><path d="M1029.9,146.3V188H988.19v67.76A109.43,109.43,0,0,1,878.73,365.22H769.26V267.5H811v56h67.77a67.76,67.76,0,0,0,0-135.52H769.26V146.3H946.49V104.6h41.7v41.7Z"/><path d="M904.31,255.29a26.06,26.06,0,0,1-26.06,26.06H852.19V229.22h26.06A26.07,26.07,0,0,1,904.31,255.29Z"/><path d="M1029.42,145.82v41.71H987.71v67.76A109.43,109.43,0,0,1,878.25,364.74H768.78V267h41.7v56h67.77a67.76,67.76,0,0,0,0-135.52H768.78V145.82H946v-41.7h41.7v41.7Z"/><path d="M903.83,254.81a26.06,26.06,0,0,1-26.06,26.06H851.71V228.74h26.06A26.07,26.07,0,0,1,903.83,254.81Z"/><path d="M1028.94,145.34v41.71H987.23v67.76A109.43,109.43,0,0,1,877.77,364.26H768.3V266.54H810v56h67.77a67.76,67.76,0,0,0,0-135.52H768.3V145.34H945.53v-41.7h41.7v41.7Z"/><path d="M903.35,254.33a26.06,26.06,0,0,1-26.06,26.06H851.23V228.26h26.06A26.07,26.07,0,0,1,903.35,254.33Z"/><path d="M1028.46,144.86v41.71H986.75v67.76A109.43,109.43,0,0,1,877.29,363.78H767.82V266.06h41.7v56h67.77a67.76,67.76,0,0,0,0-135.52H767.82V144.86H945.05v-41.7h41.7v41.7Z"/><path d="M902.87,253.85a26.06,26.06,0,0,1-26.06,26.06H850.75V227.78h26.06A26.07,26.07,0,0,1,902.87,253.85Z"/><path d="M1028,144.38v41.71H986.27v67.76A109.43,109.43,0,0,1,876.81,363.3H767.34V265.58H809v56h67.77a67.76,67.76,0,1,0,0-135.52H767.34V144.38H944.57v-41.7h41.7v41.7Z"/><path d="M902.39,253.37a26.06,26.06,0,0,1-26.06,26.06H850.27V227.3h26.06A26.07,26.07,0,0,1,902.39,253.37Z"/><path d="M1027.5,143.9v41.71H985.79v67.76A109.43,109.43,0,0,1,876.33,362.82H766.86V265.1h41.7v56h67.77a67.76,67.76,0,0,0,0-135.52H766.86V143.9H944.09V102.2h41.7v41.7Z"/><path d="M901.91,252.89A26.06,26.06,0,0,1,875.85,279H849.79V226.82h26.06A26.07,26.07,0,0,1,901.91,252.89Z"/><path d="M1027,143.42v41.71H985.31v67.76A109.43,109.43,0,0,1,875.85,362.34H766.38V264.62h41.7v56h67.77a67.76,67.76,0,0,0,0-135.52H766.38V143.42H943.61v-41.7h41.7v41.7Z"/><path d="M901.43,252.41a26.06,26.06,0,0,1-26.06,26.06H849.31V226.34h26.06A26.07,26.07,0,0,1,901.43,252.41Z"/><path d="M1026.54,142.94v41.71H984.83v67.76A109.43,109.43,0,0,1,875.37,361.86H765.9V264.14h41.7v56h67.77a67.76,67.76,0,0,0,0-135.52H765.9V142.94H943.13v-41.7h41.7v41.7Z"/><path d="M901,251.93A26.06,26.06,0,0,1,874.89,278H848.83V225.86h26.06A26.07,26.07,0,0,1,901,251.93Z"/><path d="M1026.06,142.46v41.71H984.35v67.76A109.43,109.43,0,0,1,874.89,361.38H765.42V263.66h41.7v56h67.77a67.76,67.76,0,0,0,0-135.52H765.42V142.46H942.65v-41.7h41.7v41.7Z"/><path d="M900.47,251.45a26.06,26.06,0,0,1-26.06,26.06H848.35V225.38h26.06A26.07,26.07,0,0,1,900.47,251.45Z"/><path d="M1025.58,142v41.71H983.87v67.76A109.43,109.43,0,0,1,874.41,360.9H764.94V263.18h41.7v56h67.77a67.76,67.76,0,0,0,0-135.52H764.94V142H942.17v-41.7h41.7V142Z"/><path d="M900,251A26.06,26.06,0,0,1,873.93,277H847.87V224.9h26.06A26.07,26.07,0,0,1,900,251Z"/><path d="M1025.1,141.5v41.71H983.39V251A109.43,109.43,0,0,1,873.93,360.42H764.46V262.7h41.7v56h67.77a67.76,67.76,0,1,0,0-135.52H764.46V141.5H941.69V99.8h41.7v41.7Z"/><path d="M899.51,250.49a26.06,26.06,0,0,1-26.06,26.06H847.39V224.42h26.06A26.07,26.07,0,0,1,899.51,250.49Z"/><path d="M1024.62,141v41.71H982.91v67.76A109.43,109.43,0,0,1,873.45,359.94H764V262.22h41.7v56h67.77a67.76,67.76,0,0,0,0-135.52H764V141H941.21V99.32h41.7V141Z"/><path d="M899,250A26.06,26.06,0,0,1,873,276.07H846.91V223.94H873A26.07,26.07,0,0,1,899,250Z"/><path d="M1024.14,140.54v41.71H982.43V250A109.43,109.43,0,0,1,873,359.46H763.5V261.74h41.7v56H873a67.76,67.76,0,0,0,0-135.52H763.5V140.54H940.73V98.84h41.7v41.7Z"/><path d="M898.55,249.53a26.06,26.06,0,0,1-26.06,26.06H846.43V223.46h26.06A26.07,26.07,0,0,1,898.55,249.53Z"/><path d="M1023.66,140.06v41.71H982v67.76A109.43,109.43,0,0,1,872.49,359H763V261.26h41.7v56h67.77a67.76,67.76,0,0,0,0-135.52H763V140.06H940.25V98.36H982v41.7Z"/><path d="M898.07,249.05A26.06,26.06,0,0,1,872,275.11H846V223H872A26.07,26.07,0,0,1,898.07,249.05Z"/><path d="M1023.18,139.58v41.71H981.47v67.76A109.43,109.43,0,0,1,872,358.5H762.54V260.78h41.7v56H872a67.76,67.76,0,0,0,0-135.52H762.54V139.58H939.77V97.88h41.7v41.7Z"/><path d="M897.59,248.57a26.06,26.06,0,0,1-26.06,26.06H845.47V222.5h26.06A26.07,26.07,0,0,1,897.59,248.57Z"/><path d="M1022.7,139.1v41.71H981v67.76A109.43,109.43,0,0,1,871.53,358H762.06V260.3h41.7v56h67.77a67.76,67.76,0,0,0,0-135.52H762.06V139.1H939.29V97.4H981v41.7Z"/><path d="M897.11,248.09a26.06,26.06,0,0,1-26.06,26.06H845V222h26.06A26.07,26.07,0,0,1,897.11,248.09Z"/><path d="M1022.22,138.62v41.71H980.51v67.76A109.43,109.43,0,0,1,871.05,357.54H761.58V259.82h41.7v56h67.77a67.76,67.76,0,0,0,0-135.52H761.58V138.62H938.81V96.92h41.7v41.7Z"/><path d="M896.63,247.61a26.06,26.06,0,0,1-26.06,26.06H844.51V221.54h26.06A26.07,26.07,0,0,1,896.63,247.61Z"/><path d="M1021.74,138.14v41.71H980v67.76A109.43,109.43,0,0,1,870.57,357.06H761.1V259.34h41.7v56h67.77a67.76,67.76,0,0,0,0-135.52H761.1V138.14H938.33V96.44H980v41.7Z"/><path d="M896.15,247.13a26.06,26.06,0,0,1-26.06,26.06H844V221.06h26.06A26.07,26.07,0,0,1,896.15,247.13Z"/><path d="M1021.26,137.66v41.71H979.55v67.76A109.43,109.43,0,0,1,870.09,356.58H760.62V258.86h41.7v56h67.77a67.76,67.76,0,0,0,0-135.52H760.62V137.66H937.85V96h41.7v41.7Z"/><path d="M895.67,246.65a26.06,26.06,0,0,1-26.06,26.06H843.55V220.58h26.06A26.07,26.07,0,0,1,895.67,246.65Z"/><path d="M1020.78,137.18v41.71H979.07v67.76A109.43,109.43,0,0,1,869.61,356.1H760.14V258.38h41.7v56h67.77a67.76,67.76,0,0,0,0-135.52H760.14V137.18H937.37V95.48h41.7v41.7Z"/><path d="M895.19,246.17a26.06,26.06,0,0,1-26.06,26.06H843.07V220.1h26.06A26.07,26.07,0,0,1,895.19,246.17Z"/><path d="M1020.3,136.7v41.71H978.59v67.76A109.43,109.43,0,0,1,869.13,355.62H759.66V257.9h41.7v56h67.77a67.76,67.76,0,0,0,0-135.52H759.66V136.7H936.89V95h41.7v41.7Z"/><path d="M894.71,245.69a26.06,26.06,0,0,1-26.06,26.06H842.59V219.62h26.06A26.07,26.07,0,0,1,894.71,245.69Z"/><path d="M1019.82,136.22v41.71H978.11v67.76A109.43,109.43,0,0,1,868.65,355.14H759.18V257.42h41.7v56h67.77a67.76,67.76,0,0,0,0-135.52H759.18V136.22H936.41V94.52h41.7v41.7Z"/><path d="M894.23,245.21a26.06,26.06,0,0,1-26.06,26.06H842.11V219.14h26.06A26.07,26.07,0,0,1,894.23,245.21Z"/><path d="M1019.34,135.74v41.71H977.63v67.76A109.43,109.43,0,0,1,868.17,354.66H758.7V256.94h41.7v56h67.77a67.76,67.76,0,0,0,0-135.52H758.7V135.74H935.93V94h41.7v41.7Z"/><path d="M893.75,244.73a26.06,26.06,0,0,1-26.06,26.06H841.63V218.66h26.06A26.07,26.07,0,0,1,893.75,244.73Z"/><path d="M1018.86,135.26V177H977.15v67.76A109.43,109.43,0,0,1,867.69,354.18H758.22V256.46h41.7v56h67.77a67.76,67.76,0,0,0,0-135.52H758.22V135.26H935.45V93.56h41.7v41.7Z"/><path d="M893.27,244.25a26.06,26.06,0,0,1-26.06,26.06H841.15V218.18h26.06A26.07,26.07,0,0,1,893.27,244.25Z"/><path d="M1018.38,134.78v41.71H976.67v67.76A109.43,109.43,0,0,1,867.21,353.7H757.74V256h41.7v56h67.77a67.76,67.76,0,0,0,0-135.52H757.74V134.78H935V93.08h41.7v41.7Z"/><path d="M892.79,243.77a26.06,26.06,0,0,1-26.06,26.06H840.67V217.7h26.06A26.07,26.07,0,0,1,892.79,243.77Z"/><path d="M1017.9,134.3V176H976.19v67.76A109.43,109.43,0,0,1,866.73,353.22H757.26V255.5H799v56h67.77a67.76,67.76,0,0,0,0-135.52H757.26V134.3H934.49V92.6h41.7v41.7Z"/><path d="M892.31,243.29a26.06,26.06,0,0,1-26.06,26.06H840.19V217.22h26.06A26.07,26.07,0,0,1,892.31,243.29Z"/><path d="M1017.42,133.82v41.71H975.71v67.76A109.43,109.43,0,0,1,866.25,352.74H756.78V255h41.7v56h67.77a67.76,67.76,0,0,0,0-135.52H756.78V133.82H934V92.12h41.7v41.7Z"/><path d="M891.83,242.81a26.06,26.06,0,0,1-26.06,26.06H839.71V216.74h26.06A26.07,26.07,0,0,1,891.83,242.81Z"/><path d="M1016.94,133.34v41.71H975.23v67.76A109.43,109.43,0,0,1,865.77,352.26H756.3V254.54H798v56h67.77a67.76,67.76,0,0,0,0-135.52H756.3V133.34H933.53V91.64h41.7v41.7Z"/><path d="M891.35,242.33a26.06,26.06,0,0,1-26.06,26.06H839.23V216.26h26.06A26.07,26.07,0,0,1,891.35,242.33Z"/><path d="M1016.46,132.86v41.71H974.75v67.76A109.43,109.43,0,0,1,865.29,351.78H755.82V254.06h41.7v56h67.77a67.76,67.76,0,0,0,0-135.52H755.82V132.86H933.05V91.16h41.7v41.7Z"/><path d="M890.87,241.85a26.06,26.06,0,0,1-26.06,26.06H838.75V215.78h26.06A26.07,26.07,0,0,1,890.87,241.85Z"/><path d="M1016,132.38v41.71H974.27v67.76A109.43,109.43,0,0,1,864.81,351.3H755.34V253.58H797v56h67.77a67.76,67.76,0,1,0,0-135.52H755.34V132.38H932.57V90.68h41.7v41.7Z"/><path d="M890.39,241.37a26.06,26.06,0,0,1-26.06,26.06H838.27V215.3h26.06A26.07,26.07,0,0,1,890.39,241.37Z"/><path d="M1015.5,131.9v41.71H973.79v67.76A109.43,109.43,0,0,1,864.33,350.82H754.86V253.1h41.7v56h67.77a67.76,67.76,0,0,0,0-135.52H754.86V131.9H932.09V90.2h41.7v41.7Z"/><path d="M889.91,240.89A26.06,26.06,0,0,1,863.85,267H837.79V214.82h26.06A26.07,26.07,0,0,1,889.91,240.89Z"/><path d="M1015,131.42v41.71H973.31v67.76A109.43,109.43,0,0,1,863.85,350.34H754.38V252.62h41.7v56h67.77a67.76,67.76,0,0,0,0-135.52H754.38V131.42H931.61V89.72h41.7v41.7Z"/><path d="M889.43,240.41a26.06,26.06,0,0,1-26.06,26.06H837.31V214.34h26.06A26.07,26.07,0,0,1,889.43,240.41Z"/><path d="M1014.54,130.94v41.71H972.83v67.76A109.43,109.43,0,0,1,863.37,349.86H753.9V252.14h41.7v56h67.77a67.76,67.76,0,0,0,0-135.52H753.9V130.94H931.13V89.24h41.7v41.7Z"/><path d="M889,239.93A26.06,26.06,0,0,1,862.89,266H836.83V213.86h26.06A26.07,26.07,0,0,1,889,239.93Z"/><path d="M1014.06,130.46v41.71H972.35v67.76A109.43,109.43,0,0,1,862.89,349.38H753.42V251.66h41.7v56h67.77a67.76,67.76,0,0,0,0-135.52H753.42V130.46H930.65V88.76h41.7v41.7Z"/><path d="M888.47,239.45a26.06,26.06,0,0,1-26.06,26.06H836.35V213.38h26.06A26.07,26.07,0,0,1,888.47,239.45Z"/><path d="M1013.58,130v41.71H971.87v67.76A109.43,109.43,0,0,1,862.41,348.9H752.94V251.18h41.7v56h67.77a67.76,67.76,0,0,0,0-135.52H752.94V130H930.17V88.28h41.7V130Z"/><path d="M888,239A26.06,26.06,0,0,1,861.93,265H835.87V212.9h26.06A26.07,26.07,0,0,1,888,239Z"/><path d="M1013.1,129.5v41.71H971.39V239A109.43,109.43,0,0,1,861.93,348.42H752.46V250.7h41.7v56h67.77a67.76,67.76,0,1,0,0-135.52H752.46V129.5H929.69V87.8h41.7v41.7Z"/><path d="M887.51,238.49a26.06,26.06,0,0,1-26.06,26.06H835.39V212.42h26.06A26.07,26.07,0,0,1,887.51,238.49Z"/><path d="M1012.62,129v41.71H970.91v67.76A109.43,109.43,0,0,1,861.45,347.94H752V250.22h41.7v56h67.77a67.76,67.76,0,0,0,0-135.52H752V129H929.21V87.32h41.7V129Z"/><path d="M887,238A26.06,26.06,0,0,1,861,264.07H834.91V211.94H861A26.07,26.07,0,0,1,887,238Z"/><path d="M1012.14,128.54v41.71H970.43V238A109.43,109.43,0,0,1,861,347.46H751.5V249.74h41.7v56H861a67.76,67.76,0,0,0,0-135.52H751.5V128.54H928.73V86.84h41.7v41.7Z"/><path d="M886.55,237.53a26.06,26.06,0,0,1-26.06,26.06H834.43V211.46h26.06A26.07,26.07,0,0,1,886.55,237.53Z"/><path d="M1011.66,128.06v41.71H970v67.76A109.43,109.43,0,0,1,860.49,347H751V249.26h41.7v56h67.77a67.76,67.76,0,0,0,0-135.52H751V128.06H928.25V86.36H970v41.7Z"/><path d="M886.07,237.05A26.06,26.06,0,0,1,860,263.11H834V211H860A26.07,26.07,0,0,1,886.07,237.05Z"/><path d="M1011.18,127.58v41.71H969.47v67.76A109.43,109.43,0,0,1,860,346.5H750.54V248.78h41.7v56H860a67.76,67.76,0,0,0,0-135.52H750.54V127.58H927.77V85.88h41.7v41.7Z"/><path d="M885.59,236.57a26.06,26.06,0,0,1-26.06,26.06H833.47V210.5h26.06A26.07,26.07,0,0,1,885.59,236.57Z"/><path d="M1010.7,127.1v41.71H969v67.76A109.43,109.43,0,0,1,859.53,346H750.06V248.3h41.7v56h67.77a67.76,67.76,0,0,0,0-135.52H750.06V127.1H927.29V85.4H969v41.7Z"/><path d="M885.11,236.09a26.06,26.06,0,0,1-26.06,26.06H833V210h26.06A26.07,26.07,0,0,1,885.11,236.09Z"/><path d="M1010.22,126.62v41.71H968.51v67.76A109.43,109.43,0,0,1,859.05,345.54H749.58V247.82h41.7v56h67.77a67.76,67.76,0,0,0,0-135.52H749.58V126.62H926.81V84.92h41.7v41.7Z"/><path d="M884.63,235.61a26.06,26.06,0,0,1-26.06,26.06H832.51V209.54h26.06A26.07,26.07,0,0,1,884.63,235.61Z"/><path d="M1009.74,126.14v41.71H968v67.76A109.43,109.43,0,0,1,858.57,345.06H749.1V247.34h41.7v56h67.77a67.76,67.76,0,0,0,0-135.52H749.1V126.14H926.33V84.44H968v41.7Z"/><path d="M884.15,235.13a26.06,26.06,0,0,1-26.06,26.06H832V209.06h26.06A26.07,26.07,0,0,1,884.15,235.13Z"/><path d="M1009.26,125.66v41.71H967.55v67.76A109.43,109.43,0,0,1,858.09,344.58H748.62V246.86h41.7v56h67.77a67.76,67.76,0,0,0,0-135.52H748.62V125.66H925.85V84h41.7v41.7Z"/><path d="M883.67,234.65a26.06,26.06,0,0,1-26.06,26.06H831.55V208.58h26.06A26.07,26.07,0,0,1,883.67,234.65Z"/><path d="M1008.78,125.18v41.71H967.07v67.76A109.43,109.43,0,0,1,857.61,344.1H748.14V246.38h41.7v56h67.77a67.76,67.76,0,0,0,0-135.52H748.14V125.18H925.37V83.48h41.7v41.7Z"/><path d="M883.19,234.17a26.06,26.06,0,0,1-26.06,26.06H831.07V208.1h26.06A26.07,26.07,0,0,1,883.19,234.17Z"/><path d="M1008.3,124.7v41.71H966.59v67.76A109.43,109.43,0,0,1,857.13,343.62H747.66V245.9h41.7v56h67.77a67.76,67.76,0,0,0,0-135.52H747.66V124.7H924.89V83h41.7v41.7Z"/><path d="M882.71,233.69a26.06,26.06,0,0,1-26.06,26.06H830.59V207.62h26.06A26.07,26.07,0,0,1,882.71,233.69Z"/><path d="M1007.82,124.22v41.71H966.11v67.76A109.43,109.43,0,0,1,856.65,343.14H747.18V245.42h41.7v56h67.77a67.76,67.76,0,0,0,0-135.52H747.18V124.22H924.41V82.52h41.7v41.7Z"/><path d="M882.23,233.21a26.06,26.06,0,0,1-26.06,26.06H830.11V207.14h26.06A26.07,26.07,0,0,1,882.23,233.21Z"/><path d="M1007.34,123.74v41.71H965.63v67.76A109.43,109.43,0,0,1,856.17,342.66H746.7V244.94h41.7v56h67.77a67.76,67.76,0,0,0,0-135.52H746.7V123.74H923.93V82h41.7v41.7Z"/><path d="M881.75,232.73a26.06,26.06,0,0,1-26.06,26.06H829.63V206.66h26.06A26.07,26.07,0,0,1,881.75,232.73Z"/><path d="M1006.86,123.26V165H965.15v67.76A109.43,109.43,0,0,1,855.69,342.18H746.22V244.46h41.7v56h67.77a67.76,67.76,0,0,0,0-135.52H746.22V123.26H923.45V81.56h41.7v41.7Z"/><path d="M881.27,232.25a26.06,26.06,0,0,1-26.06,26.06H829.15V206.18h26.06A26.07,26.07,0,0,1,881.27,232.25Z"/><path d="M1006.38,122.78v41.71H964.67v67.76A109.43,109.43,0,0,1,855.21,341.7H745.74V244h41.7v56h67.77a67.76,67.76,0,0,0,0-135.52H745.74V122.78H923V81.08h41.7v41.7Z"/><path d="M880.79,231.77a26.06,26.06,0,0,1-26.06,26.06H828.67V205.7h26.06A26.07,26.07,0,0,1,880.79,231.77Z"/><path d="M1005.9,122.3V164H964.19v67.76A109.43,109.43,0,0,1,854.73,341.22H745.26V243.5H787v56h67.77a67.76,67.76,0,0,0,0-135.52H745.26V122.3H922.49V80.6h41.7v41.7Z"/><path d="M880.31,231.29a26.06,26.06,0,0,1-26.06,26.06H828.19V205.22h26.06A26.07,26.07,0,0,1,880.31,231.29Z"/><path d="M1005.42,121.82v41.71H963.71v67.76A109.43,109.43,0,0,1,854.25,340.74H744.78V243h41.7v56h67.77a67.76,67.76,0,0,0,0-135.52H744.78V121.82H922V80.12h41.7v41.7Z"/><path d="M879.83,230.81a26.06,26.06,0,0,1-26.06,26.06H827.71V204.74h26.06A26.07,26.07,0,0,1,879.83,230.81Z"/><path d="M1004.94,121.34v41.71H963.23v67.76A109.43,109.43,0,0,1,853.77,340.26H744.3V242.54H786v56h67.77a67.76,67.76,0,0,0,0-135.52H744.3V121.34H921.53V79.64h41.7v41.7Z"/><path d="M879.35,230.33a26.06,26.06,0,0,1-26.06,26.06H827.23V204.26h26.06A26.07,26.07,0,0,1,879.35,230.33Z"/><path d="M1004.46,120.86v41.71H962.75v67.76A109.43,109.43,0,0,1,853.29,339.78H743.82V242.06h41.7v56h67.77a67.76,67.76,0,0,0,0-135.52H743.82V120.86H921.05V79.16h41.7v41.7Z"/><path d="M878.87,229.85a26.06,26.06,0,0,1-26.06,26.06H826.75V203.78h26.06A26.07,26.07,0,0,1,878.87,229.85Z"/><path d="M1004,120.38v41.71H962.27v67.76A109.43,109.43,0,0,1,852.81,339.3H743.34V241.58H785v56h67.77a67.76,67.76,0,1,0,0-135.52H743.34V120.38H920.57V78.68h41.7v41.7Z"/><path d="M878.39,229.37a26.06,26.06,0,0,1-26.06,26.06H826.27V203.3h26.06A26.07,26.07,0,0,1,878.39,229.37Z"/><path d="M1003.5,119.9v41.71H961.79v67.76A109.43,109.43,0,0,1,852.33,338.82H742.86V241.1h41.7v56h67.77a67.76,67.76,0,0,0,0-135.52H742.86V119.9H920.09V78.2h41.7v41.7Z"/><path d="M877.91,228.89A26.06,26.06,0,0,1,851.85,255H825.79V202.82h26.06A26.07,26.07,0,0,1,877.91,228.89Z"/><path d="M1003,119.42v41.71H961.31v67.76A109.43,109.43,0,0,1,851.85,338.34H742.38V240.62h41.7v56h67.77a67.76,67.76,0,0,0,0-135.52H742.38V119.42H919.61V77.72h41.7v41.7Z"/><path d="M877.43,228.41a26.06,26.06,0,0,1-26.06,26.06H825.31V202.34h26.06A26.07,26.07,0,0,1,877.43,228.41Z"/><path d="M1002.54,118.94v41.71H960.83v67.76A109.43,109.43,0,0,1,851.37,337.86H741.9V240.14h41.7v56h67.77a67.76,67.76,0,0,0,0-135.52H741.9V118.94H919.13V77.24h41.7v41.7Z"/><path d="M877,227.93A26.06,26.06,0,0,1,850.89,254H824.83V201.86h26.06A26.07,26.07,0,0,1,877,227.93Z"/><path d="M1002.06,118.46v41.71H960.35v67.76A109.43,109.43,0,0,1,850.89,337.38H741.42V239.66h41.7v56h67.77a67.76,67.76,0,0,0,0-135.52H741.42V118.46H918.65V76.76h41.7v41.7Z"/><path d="M876.47,227.45a26.06,26.06,0,0,1-26.06,26.06H824.35V201.38h26.06A26.07,26.07,0,0,1,876.47,227.45Z"/><path d="M1001.58,118v41.71H959.87v67.76A109.43,109.43,0,0,1,850.41,336.9H740.94V239.18h41.7v56h67.77a67.76,67.76,0,0,0,0-135.52H740.94V118H918.17V76.28h41.7V118Z"/><path d="M876,227A26.06,26.06,0,0,1,849.93,253H823.87V200.9h26.06A26.07,26.07,0,0,1,876,227Z"/><path d="M1001.1,117.5v41.71H959.39V227A109.43,109.43,0,0,1,849.93,336.42H740.46V238.7h41.7v56h67.77a67.76,67.76,0,1,0,0-135.52H740.46V117.5H917.69V75.8h41.7v41.7Z"/><path d="M875.51,226.49a26.06,26.06,0,0,1-26.06,26.06H823.39V200.42h26.06A26.07,26.07,0,0,1,875.51,226.49Z"/><path d="M1000.62,117v41.71H958.91v67.76A109.43,109.43,0,0,1,849.45,335.94H740V238.22h41.7v56h67.77a67.76,67.76,0,0,0,0-135.52H740V117H917.21V75.32h41.7V117Z"/><path d="M875,226A26.06,26.06,0,0,1,849,252.07H822.91V199.94H849A26.07,26.07,0,0,1,875,226Z"/><path d="M1000.14,116.54v41.71H958.43V226A109.43,109.43,0,0,1,849,335.46H739.5V237.74h41.7v56H849a67.76,67.76,0,0,0,0-135.52H739.5V116.54H916.73V74.84h41.7v41.7Z"/><path d="M874.55,225.53a26.06,26.06,0,0,1-26.06,26.06H822.43V199.46h26.06A26.07,26.07,0,0,1,874.55,225.53Z"/><path d="M999.66,116.06v41.71H958v67.76A109.43,109.43,0,0,1,848.49,335H739V237.26h41.7v56h67.77a67.76,67.76,0,0,0,0-135.52H739V116.06H916.25V74.36H958v41.7Z"/><path d="M874.07,225.05A26.06,26.06,0,0,1,848,251.11H822V199H848A26.07,26.07,0,0,1,874.07,225.05Z"/><path d="M999.18,115.58v41.71H957.47v67.76A109.43,109.43,0,0,1,848,334.5H738.54V236.78h41.7v56H848a67.76,67.76,0,0,0,0-135.52H738.54V115.58H915.77V73.88h41.7v41.7Z"/><path d="M873.59,224.57a26.06,26.06,0,0,1-26.06,26.06H821.47V198.5h26.06A26.07,26.07,0,0,1,873.59,224.57Z"/><path d="M998.7,115.1v41.71H957v67.76A109.43,109.43,0,0,1,847.53,334H738.06V236.3h41.7v56h67.77a67.76,67.76,0,0,0,0-135.52H738.06V115.1H915.29V73.4H957v41.7Z"/><path d="M873.11,224.09a26.06,26.06,0,0,1-26.06,26.06H821V198h26.06A26.07,26.07,0,0,1,873.11,224.09Z"/><path d="M998.22,114.62v41.71H956.51v67.76A109.43,109.43,0,0,1,847.05,333.54H737.58V235.82h41.7v56h67.77a67.76,67.76,0,0,0,0-135.52H737.58V114.62H914.81V72.92h41.7v41.7Z"/><path d="M872.63,223.61a26.06,26.06,0,0,1-26.06,26.06H820.51V197.54h26.06A26.07,26.07,0,0,1,872.63,223.61Z"/><path d="M997.74,114.14v41.71H956v67.76A109.43,109.43,0,0,1,846.57,333.06H737.1V235.34h41.7v56h67.77a67.76,67.76,0,0,0,0-135.52H737.1V114.14H914.33V72.44H956v41.7Z"/><path d="M872.15,223.13a26.06,26.06,0,0,1-26.06,26.06H820V197.06h26.06A26.07,26.07,0,0,1,872.15,223.13Z"/><path d="M997.26,113.66v41.71H955.55v67.76A109.43,109.43,0,0,1,846.09,332.58H736.62V234.86h41.7v56h67.77a67.76,67.76,0,0,0,0-135.52H736.62V113.66H913.85V72h41.7v41.7Z"/><path d="M871.67,222.65a26.06,26.06,0,0,1-26.06,26.06H819.55V196.58h26.06A26.07,26.07,0,0,1,871.67,222.65Z"/><path d="M996.78,113.18v41.71H955.07v67.76A109.43,109.43,0,0,1,845.61,332.1H736.14V234.38h41.7v56h67.77a67.76,67.76,0,0,0,0-135.52H736.14V113.18H913.37V71.48h41.7v41.7Z"/><path d="M871.19,222.17a26.06,26.06,0,0,1-26.06,26.06H819.07V196.1h26.06A26.07,26.07,0,0,1,871.19,222.17Z"/><path d="M996.3,112.7v41.71H954.59v67.76A109.43,109.43,0,0,1,845.13,331.62H735.66V233.9h41.7v56h67.77a67.76,67.76,0,0,0,0-135.52H735.66V112.7H912.89V71h41.7v41.7Z"/><path d="M870.71,221.69a26.06,26.06,0,0,1-26.06,26.06H818.59V195.62h26.06A26.07,26.07,0,0,1,870.71,221.69Z"/><path d="M995.82,112.22v41.71H954.11v67.76A109.43,109.43,0,0,1,844.65,331.14H735.18V233.42h41.7v56h67.77a67.76,67.76,0,0,0,0-135.52H735.18V112.22H912.41V70.52h41.7v41.7Z"/><path d="M870.23,221.21a26.06,26.06,0,0,1-26.06,26.06H818.11V195.14h26.06A26.07,26.07,0,0,1,870.23,221.21Z"/><path d="M995.34,111.74v41.71H953.63v67.76A109.43,109.43,0,0,1,844.17,330.66H734.7V232.94h41.7v56h67.77a67.76,67.76,0,0,0,0-135.52H734.7V111.74H911.93V70h41.7v41.7Z"/><path d="M869.75,220.73a26.06,26.06,0,0,1-26.06,26.06H817.63V194.66h26.06A26.07,26.07,0,0,1,869.75,220.73Z"/><path d="M994.86,111.26V153H953.15v67.76A109.43,109.43,0,0,1,843.69,330.18H734.22V232.46h41.7v56h67.77a67.76,67.76,0,0,0,0-135.52H734.22V111.26H911.45V69.56h41.7v41.7Z"/><path d="M869.27,220.25a26.06,26.06,0,0,1-26.06,26.06H817.15V194.18h26.06A26.07,26.07,0,0,1,869.27,220.25Z"/><path d="M994.38,110.78v41.71H952.67v67.76A109.43,109.43,0,0,1,843.21,329.7H733.74V232h41.7v56h67.77a67.76,67.76,0,0,0,0-135.52H733.74V110.78H911V69.08h41.7v41.7Z"/><path d="M868.79,219.77a26.06,26.06,0,0,1-26.06,26.06H816.67V193.7h26.06A26.07,26.07,0,0,1,868.79,219.77Z"/><path d="M993.9,110.3V152H952.19v67.76A109.43,109.43,0,0,1,842.73,329.22H733.26V231.5H775v56h67.77a67.76,67.76,0,0,0,0-135.52H733.26V110.3H910.49V68.6h41.7v41.7Z"/><path d="M868.31,219.29a26.06,26.06,0,0,1-26.06,26.06H816.19V193.22h26.06A26.07,26.07,0,0,1,868.31,219.29Z"/><path d="M993.42,109.82v41.71H951.71v67.76A109.43,109.43,0,0,1,842.25,328.74H732.78V231h41.7v56h67.77a67.76,67.76,0,0,0,0-135.52H732.78V109.82H910V68.12h41.7v41.7Z"/><path d="M867.83,218.81a26.06,26.06,0,0,1-26.06,26.06H815.71V192.74h26.06A26.07,26.07,0,0,1,867.83,218.81Z"/><path d="M992.94,109.34v41.71H951.23v67.76A109.43,109.43,0,0,1,841.77,328.26H732.3V230.54H774v56h67.77a67.76,67.76,0,0,0,0-135.52H732.3V109.34H909.53V67.64h41.7v41.7Z"/><path d="M867.35,218.33a26.06,26.06,0,0,1-26.06,26.06H815.23V192.26h26.06A26.07,26.07,0,0,1,867.35,218.33Z"/><path d="M992.46,108.86v41.71H950.75v67.76A109.43,109.43,0,0,1,841.29,327.78H731.82V230.06h41.7v56h67.77a67.76,67.76,0,0,0,0-135.52H731.82V108.86H909.05V67.16h41.7v41.7Z"/><path d="M866.87,217.85a26.06,26.06,0,0,1-26.06,26.06H814.75V191.78h26.06A26.07,26.07,0,0,1,866.87,217.85Z"/><path d="M992,108.38v41.71H950.27v67.76A109.43,109.43,0,0,1,840.81,327.3H731.34V229.58H773v56h67.77a67.76,67.76,0,1,0,0-135.52H731.34V108.38H908.57V66.68h41.7v41.7Z"/><path d="M866.39,217.37a26.06,26.06,0,0,1-26.06,26.06H814.27V191.3h26.06A26.07,26.07,0,0,1,866.39,217.37Z"/><path d="M991.5,107.9v41.71H949.79v67.76A109.43,109.43,0,0,1,840.33,326.82H730.86V229.1h41.7v56h67.77a67.76,67.76,0,0,0,0-135.52H730.86V107.9H908.09V66.2h41.7v41.7Z"/><path d="M865.91,216.89A26.06,26.06,0,0,1,839.85,243H813.79V190.82h26.06A26.07,26.07,0,0,1,865.91,216.89Z"/><path d="M991,107.42v41.71H949.31v67.76A109.43,109.43,0,0,1,839.85,326.34H730.38V228.62h41.7v56h67.77a67.76,67.76,0,0,0,0-135.52H730.38V107.42H907.61V65.72h41.7v41.7Z"/><path d="M865.43,216.41a26.06,26.06,0,0,1-26.06,26.06H813.31V190.34h26.06A26.07,26.07,0,0,1,865.43,216.41Z"/><path d="M990.54,106.94v41.71H948.83v67.76A109.43,109.43,0,0,1,839.37,325.86H729.9V228.14h41.7v56h67.77a67.76,67.76,0,0,0,0-135.52H729.9V106.94H907.13V65.24h41.7v41.7Z"/><path d="M865,215.93A26.06,26.06,0,0,1,838.89,242H812.83V189.86h26.06A26.07,26.07,0,0,1,865,215.93Z"/><path d="M990.06,106.46v41.71H948.35v67.76A109.43,109.43,0,0,1,838.89,325.38H729.42V227.66h41.7v56h67.77a67.76,67.76,0,0,0,0-135.52H729.42V106.46H906.65V64.76h41.7v41.7Z"/><path d="M864.47,215.45a26.06,26.06,0,0,1-26.06,26.06H812.35V189.38h26.06A26.07,26.07,0,0,1,864.47,215.45Z"/><path d="M989.58,106v41.71H947.87v67.76A109.43,109.43,0,0,1,838.41,324.9H728.94V227.18h41.7v56h67.77a67.76,67.76,0,0,0,0-135.52H728.94V106H906.17V64.28h41.7V106Z"/><path d="M864,215A26.06,26.06,0,0,1,837.93,241H811.87V188.9h26.06A26.07,26.07,0,0,1,864,215Z"/><path d="M989.1,105.5v41.71H947.39V215A109.43,109.43,0,0,1,837.93,324.42H728.46V226.7h41.7v56h67.77a67.76,67.76,0,1,0,0-135.52H728.46V105.5H905.69V63.8h41.7v41.7Z"/></g><path d="M989.1,105.5v41.71H947.39V215A109.43,109.43,0,0,1,837.93,324.42H728.46V226.7h41.7v56h67.77a67.76,67.76,0,1,0,0-135.52H728.46V105.5H905.69V63.8h41.7v41.7Z"/><path d="M864,215A26.06,26.06,0,0,1,837.93,241H811.87V188.9h26.06A26.07,26.07,0,0,1,864,215Z"/><circle class="cls-6" cx="419.04" cy="495.86" r="39.74"/><polyline class="cls-8" points="935.71 133.51 1253.65 133.51 1253.65 12.72 1333.14 12.72 1333.14 173.77 1690.83 173.77"/><line class="cls-9" x1="836.16" y1="-5.02" x2="1189.1" y2="352.53"/><line class="cls-8" x1="101.09" y1="254.29" x2="101.09" y2="536.13"/><line class="cls-8" x1="61.35" y1="415.34" x2="975.45" y2="415.34"/><polygon class="cls-10" points="101.09 415.34 61.35 455.6 140.84 455.6 101.09 415.34"/><polyline class="cls-8" points="180.58 375.08 220.32 334.82 260.07 375.08 299.81 334.82 339.55 375.08 379.3 334.82 419.04 375.08 458.79 334.82 498.53 375.08 538.27 334.82 578.01 375.08 617.76 334.82 657.5 375.22 697.25 334.82"/><polygon class="cls-11" points="1452.37 173.77 1492.11 133.51 1492.11 214.03 1452.37 173.77"/><circle class="cls-12" cx="1531.86" cy="395.19" r="143.46"/></g></svg>