<?xml version="1.0" encoding="utf-8"?>
<!-- Generator: Adobe Illustrator 25.2.1, SVG Export Plug-In . SVG Version: 6.00 Build 0)  -->
<svg version="1.1" id="Layer_1" xmlns:sketch="http://www.bohemiancoding.com/sketch/ns"
	 xmlns="http://www.w3.org/2000/svg" xmlns:xlink="http://www.w3.org/1999/xlink" x="0px" y="0px" viewBox="0 0 136 27"
	 style="enable-background:new 0 0 136 27;" xml:space="preserve">
<style type="text/css">
	.st0{fill-rule:evenodd;clip-rule:evenodd;}
	.st1{filter:url(#Adobe_OpacityMaskFilter);}
	.st2{fill-rule:evenodd;clip-rule:evenodd;fill:#FFFFFF;}
	.st3{mask:url(#mask-2_1_);fill-rule:evenodd;clip-rule:evenodd;}
	.st4{filter:url(#Adobe_OpacityMaskFilter_1_);}
	.st5{mask:url(#mask-2_2_);fill-rule:evenodd;clip-rule:evenodd;}
	.st6{filter:url(#Adobe_OpacityMaskFilter_2_);}
	.st7{mask:url(#mask-2_3_);fill-rule:evenodd;clip-rule:evenodd;}
	.st8{filter:url(#Adobe_OpacityMaskFilter_3_);}
	.st9{mask:url(#mask-2_4_);fill-rule:evenodd;clip-rule:evenodd;}
	.st10{filter:url(#Adobe_OpacityMaskFilter_4_);}
	.st11{mask:url(#mask-2_5_);fill-rule:evenodd;clip-rule:evenodd;}
	.st12{filter:url(#Adobe_OpacityMaskFilter_5_);}
	.st13{mask:url(#mask-2_6_);fill-rule:evenodd;clip-rule:evenodd;}
	.st14{filter:url(#Adobe_OpacityMaskFilter_6_);}
	.st15{mask:url(#mask-2_7_);fill-rule:evenodd;clip-rule:evenodd;fill:#86BC25;}
	.st16{filter:url(#Adobe_OpacityMaskFilter_7_);}
	.st17{mask:url(#mask-2_8_);fill-rule:evenodd;clip-rule:evenodd;}
	.st18{filter:url(#Adobe_OpacityMaskFilter_8_);}
	.st19{mask:url(#mask-2_9_);fill-rule:evenodd;clip-rule:evenodd;}
</style>
<desc>Created with Sketch.</desc>
<g id="LOGIN" sketch:type="MSPage">
	<g id="Desktop-HD_Login" transform="translate(-20.000000, -22.000000)" sketch:type="MSArtboardGroup">
		<g id="Login" transform="translate(0.000000, -30.000000)" sketch:type="MSLayerGroup">
			<g id="Site-Title-Area" transform="translate(20.000000, 40.000000)">
				<g id="Logo-white" transform="translate(0.000000, 12.000000)">
					<path id="Fill-1" sketch:type="MSShapeGroup" class="st0" d="M20.4,13.3c0,4-1.1,7.1-3.3,9.3s-5.3,3.3-9.3,3.3H0V1.8h8.3
						c3.9,0,6.8,1,8.9,3C19.3,6.7,20.4,9.6,20.4,13.3 M13.6,13.6c0-2.2-0.4-3.8-1.3-4.9C11.5,7.6,10.1,7,8.4,7H6.5v13.5h1.4
						c2,0,3.4-0.6,4.3-1.7C13.2,17.7,13.6,15.9,13.6,13.6"/>
					<g id="Clip-4">
					</g>
					<defs>
						<filter id="Adobe_OpacityMaskFilter" filterUnits="userSpaceOnUse" x="42.4" y="0.2" width="6.4" height="25.6">
							<feColorMatrix  type="matrix" values="1 0 0 0 0  0 1 0 0 0  0 0 1 0 0  0 0 0 1 0"/>
						</filter>
					</defs>
					<mask maskUnits="userSpaceOnUse" x="42.4" y="0.2" width="6.4" height="25.6" id="mask-2_1_">
						<g class="st1">
							<path id="path-1_1_" class="st2" d="M0,0.2h136v26.1H0V0.2z"/>
						</g>
					</mask>
					<path id="Fill-3" sketch:type="MSShapeGroup" class="st3" d="M48.8,25.9h-6.4V0.2h6.4V25.9z"/>
					<defs>
						<filter id="Adobe_OpacityMaskFilter_1_" filterUnits="userSpaceOnUse" x="51.1" y="6.9" width="18.6" height="19.3">
							<feColorMatrix  type="matrix" values="1 0 0 0 0  0 1 0 0 0  0 0 1 0 0  0 0 0 1 0"/>
						</filter>
					</defs>
					<mask maskUnits="userSpaceOnUse" x="51.1" y="6.9" width="18.6" height="19.3" id="mask-2_2_">
						<g class="st4">
							<path id="path-1_2_" class="st2" d="M0,0.2h136v26.1H0V0.2z"/>
						</g>
					</mask>
					<path id="Fill-5" sketch:type="MSShapeGroup" class="st5" d="M69.6,16.5c0,3.1-0.8,5.4-2.5,7.1c-1.6,1.7-3.9,2.6-6.9,2.6
						c-2.8,0-5.1-0.9-6.7-2.6c-1.7-1.7-2.5-4.1-2.5-7.1c0-3,0.8-5.4,2.5-7.1s3.9-2.5,6.9-2.5c1.8,0,3.4,0.4,4.8,1.2
						c1.4,0.8,2.5,1.9,3.2,3.4C69.2,12.9,69.6,14.6,69.6,16.5 M57.6,16.5c0,1.6,0.2,2.8,0.6,3.7c0.4,0.8,1.1,1.3,2.1,1.3
						c1,0,1.7-0.4,2.1-1.3c0.4-0.8,0.6-2.1,0.6-3.7c0-1.6-0.2-2.8-0.6-3.6c-0.4-0.8-1.1-1.2-2.1-1.2c-1,0-1.7,0.4-2.1,1.2
						C57.8,13.7,57.6,14.9,57.6,16.5"/>
					<defs>
						<filter id="Adobe_OpacityMaskFilter_2_" filterUnits="userSpaceOnUse" x="72" y="7.2" width="6.4" height="18.7">
							<feColorMatrix  type="matrix" values="1 0 0 0 0  0 1 0 0 0  0 0 1 0 0  0 0 0 1 0"/>
						</filter>
					</defs>
					<mask maskUnits="userSpaceOnUse" x="72" y="7.2" width="6.4" height="18.7" id="mask-2_3_">
						<g class="st6">
							<path id="path-1_3_" class="st2" d="M0,0.2h136v26.1H0V0.2z"/>
						</g>
					</mask>
					<path id="Fill-6" sketch:type="MSShapeGroup" class="st7" d="M78.4,25.9H72V7.2h6.4V25.9z"/>
					<defs>
						<filter id="Adobe_OpacityMaskFilter_3_" filterUnits="userSpaceOnUse" x="72" y="0.2" width="6.4" height="5.3">
							<feColorMatrix  type="matrix" values="1 0 0 0 0  0 1 0 0 0  0 0 1 0 0  0 0 0 1 0"/>
						</filter>
					</defs>
					<mask maskUnits="userSpaceOnUse" x="72" y="0.2" width="6.4" height="5.3" id="mask-2_4_">
						<g class="st8">
							<path id="path-1_4_" class="st2" d="M0,0.2h136v26.1H0V0.2z"/>
						</g>
					</mask>
					<path id="Fill-7" sketch:type="MSShapeGroup" class="st9" d="M78.4,5.5H72V0.2h6.4V5.5z"/>
					<defs>
						<filter id="Adobe_OpacityMaskFilter_4_" filterUnits="userSpaceOnUse" x="80.2" y="1.3" width="13.5" height="24.9">
							<feColorMatrix  type="matrix" values="1 0 0 0 0  0 1 0 0 0  0 0 1 0 0  0 0 0 1 0"/>
						</filter>
					</defs>
					<mask maskUnits="userSpaceOnUse" x="80.2" y="1.3" width="13.5" height="24.9" id="mask-2_5_">
						<g class="st10">
							<path id="path-1_5_" class="st2" d="M0,0.2h136v26.1H0V0.2z"/>
						</g>
					</mask>
					<path id="Fill-8" sketch:type="MSShapeGroup" class="st11" d="M90.6,21.1c0.9,0,1.9-0.2,3.1-0.6v4.7c-0.9,0.4-1.7,0.6-2.5,0.8
						c-0.8,0.2-1.7,0.2-2.8,0.2c-2.2,0-3.7-0.5-4.7-1.6c-1-1.1-1.4-2.7-1.4-4.9V12h-2.2V7.2h2.2V2.7l6.5-1.4v5.9H93V12h-4.1v7.3
						C88.9,20.5,89.5,21.1,90.6,21.1"/>
					<defs>
						<filter id="Adobe_OpacityMaskFilter_5_" filterUnits="userSpaceOnUse" x="94.5" y="1.3" width="13.5" height="24.9">
							<feColorMatrix  type="matrix" values="1 0 0 0 0  0 1 0 0 0  0 0 1 0 0  0 0 0 1 0"/>
						</filter>
					</defs>
					<mask maskUnits="userSpaceOnUse" x="94.5" y="1.3" width="13.5" height="24.9" id="mask-2_6_">
						<g class="st12">
							<path id="path-1_6_" class="st2" d="M0,0.2h136v26.1H0V0.2z"/>
						</g>
					</mask>
					<path id="Fill-9" sketch:type="MSShapeGroup" class="st13" d="M104.9,21.1c0.9,0,1.9-0.2,3.1-0.6v4.7c-0.9,0.4-1.7,0.6-2.5,0.8
						c-0.8,0.2-1.7,0.2-2.8,0.2c-2.2,0-3.7-0.5-4.7-1.6c-1-1.1-1.4-2.7-1.4-4.9V12h-2.2V7.2h2.2V2.7l6.5-1.4v5.9h4.1V12h-4.1v7.3
						C103.2,20.5,103.8,21.1,104.9,21.1"/>
					<defs>
						<filter id="Adobe_OpacityMaskFilter_6_" filterUnits="userSpaceOnUse" x="128.8" y="19" width="7.2" height="7.3">
							<feColorMatrix  type="matrix" values="1 0 0 0 0  0 1 0 0 0  0 0 1 0 0  0 0 0 1 0"/>
						</filter>
					</defs>
					<mask maskUnits="userSpaceOnUse" x="128.8" y="19" width="7.2" height="7.3" id="mask-2_7_">
						<g class="st14">
							<path id="path-1_7_" class="st2" d="M0,0.2h136v26.1H0V0.2z"/>
						</g>
					</mask>
					<path id="Fill-10" sketch:type="MSShapeGroup" class="st15" d="M132.4,19c2,0,3.6,1.6,3.6,3.6s-1.6,3.6-3.6,3.6
						c-2,0-3.6-1.6-3.6-3.6S130.4,19,132.4,19z"/>
					<defs>
						<filter id="Adobe_OpacityMaskFilter_7_" filterUnits="userSpaceOnUse" x="108.9" y="6.9" width="17.9" height="19.3">
							<feColorMatrix  type="matrix" values="1 0 0 0 0  0 1 0 0 0  0 0 1 0 0  0 0 0 1 0"/>
						</filter>
					</defs>
					<mask maskUnits="userSpaceOnUse" x="108.9" y="6.9" width="17.9" height="19.3" id="mask-2_8_">
						<g class="st16">
							<path id="path-1_8_" class="st2" d="M0,0.2h136v26.1H0V0.2z"/>
						</g>
					</mask>
					<path id="Fill-11" sketch:type="MSShapeGroup" class="st17" d="M124.6,9.1c-1.5-1.5-3.7-2.2-6.5-2.2c-2.9,0-5.2,0.8-6.8,2.5
						c-1.6,1.7-2.4,4.1-2.4,7.3c0,3.1,0.9,5.4,2.6,7.1c1.7,1.7,4.1,2.5,7.2,2.5c1.5,0,2.8-0.1,3.8-0.3c1.1-0.2,2.1-0.5,3.1-1.1
						l-1-4.2c-0.7,0.3-1.4,0.5-2.1,0.7c-0.9,0.2-2,0.3-3.1,0.3c-1.2,0-2.2-0.3-2.9-0.9c-0.7-0.6-1.1-1.4-1.1-2.5h11.5v-2.9
						C126.9,12.7,126.1,10.5,124.6,9.1L124.6,9.1z M115.5,14.2c0.1-1,0.4-1.8,0.9-2.2c0.5-0.5,1.1-0.7,1.9-0.7c0.8,0,1.5,0.3,2,0.8
						c0.5,0.5,0.7,1.3,0.8,2.2H115.5z"/>
					<defs>
						<filter id="Adobe_OpacityMaskFilter_8_" filterUnits="userSpaceOnUse" x="22.1" y="6.9" width="17.9" height="19.3">
							<feColorMatrix  type="matrix" values="1 0 0 0 0  0 1 0 0 0  0 0 1 0 0  0 0 0 1 0"/>
						</filter>
					</defs>
					<mask maskUnits="userSpaceOnUse" x="22.1" y="6.9" width="17.9" height="19.3" id="mask-2_9_">
						<g class="st18">
							<path id="path-1_9_" class="st2" d="M0,0.2h136v26.1H0V0.2z"/>
						</g>
					</mask>
					<path id="Fill-12" sketch:type="MSShapeGroup" class="st19" d="M37.8,9.1c-1.5-1.5-3.7-2.2-6.5-2.2c-2.9,0-5.2,0.8-6.8,2.5
						c-1.6,1.7-2.4,4.1-2.4,7.3c0,3.1,0.9,5.4,2.6,7.1c1.7,1.7,4.1,2.5,7.2,2.5c1.5,0,2.8-0.1,3.8-0.3c1.1-0.2,2.1-0.5,3.1-1.1
						l-1-4.2c-0.7,0.3-1.4,0.5-2.1,0.7c-0.9,0.2-2,0.3-3.1,0.3c-1.2,0-2.2-0.3-2.9-0.9c-0.7-0.6-1.1-1.4-1.1-2.5h11.5v-2.9
						C40.1,12.7,39.3,10.5,37.8,9.1L37.8,9.1z M28.7,14.2c0.1-1,0.4-1.8,0.9-2.2c0.5-0.5,1.1-0.7,1.9-0.7c0.8,0,1.5,0.3,2,0.8
						c0.5,0.5,0.7,1.3,0.8,2.2H28.7z"/>
				</g>
			</g>
		</g>
	</g>
</g>
</svg>
